<?xml version="1.0" encoding="UTF-8"?>
<svg width="1200pt" height="1200pt" version="1.1" viewBox="0 0 1200 1200" xmlns="http://www.w3.org/2000/svg">
 <defs>
  <clipPath id="d">
   <path d="m270 306h629v503h-629z"/>
  </clipPath>
  <clipPath id="c">
   <path d="m1134.4 600-534.37 534.37-534.37-534.37 534.37-534.37z"/>
  </clipPath>
  <clipPath id="b">
   <path d="m523 565h34v13h-34z"/>
  </clipPath>
  <clipPath id="a">
   <path d="m1134.4 600-534.37 534.37-534.37-534.37 534.37-534.37z"/>
  </clipPath>
 </defs>
 <g>
  <g clip-path="url(#d)">
   <g clip-path="url(#c)">
    <path d="m623.51 651.3c-12.289-4.8086-21.91-13.359-33.133-19.238-40.078-20.84-81.758-40.078-123.44-59.316-42.75-20.305-87.102-37.941-130.92-57.176-18.703-8.0156-37.406-14.961-56.109-22.977-4.8086-1.6016-8.5508-4.2734-9.6172-9.6172 13.895-7.4805 26.719-12.824 42.215-16.566 21.91-4.8086 42.75-13.895 58.781-30.992 6.4141-7.4805 9.6172-14.961 8.5508-24.582-2.1367-11.758-3.207-23.512-5.3438-35.27-1.6016-9.0859-3.207-20.305 1.6016-27.254 6.9453-9.0859 4.2734-17.102 3.207-25.648-0.53516-2.6719-0.53516-5.8789-0.53516-8.0156 0-3.207 1.0703-6.4141 5.3438-7.4805 3.207-1.0703 4.2734 2.1367 6.4141 4.2734 7.4805 9.6172 15.496 18.703 23.512 28.855 16.566 19.773 32.598 40.078 48.629 59.316 2.1367 2.1367 4.8086 4.8086 4.2734 6.4141-0.53516 8.0156 5.3438 11.758 9.6172 16.031 16.031 17.102 32.062 34.199 48.629 50.766 22.977 24.047 44.887 49.16 70.004 72.141 16.031 14.961 31.527 30.461 47.559 45.422 7.4805 7.4805 16.566 13.359 27.254 19.773-2.6719-11.223-4.2734-21.375-7.4805-30.992-2.1367-6.4141-2.6719-12.289-0.53516-18.703 2.6719-8.0156 2.1367-16.031 3.207-24.582 0-7.4805-3.207-14.961-1.0703-21.375 3.207-8.5508 1.0703-16.031-0.53516-24.047-0.53516-1.6016-0.53516-2.6719-0.53516-3.7422 0-2.1367 1.0703-3.207 3.207-4.2734 2.6719-0.53516 3.207 1.0703 3.7422 2.6719 1.0703 6.4141 5.3438 11.758 8.5508 17.102s9.6172 9.6172 11.223 15.496c2.6719 13.359 11.223 24.047 16.566 35.805 20.84 50.766 50.23 95.117 86.566 135.73 22.977 26.184 46.492 51.832 67.332 80.156 9.6172 12.824 20.84 24.047 34.734 32.598 2.1367 1.0703 5.3438 2.1367 2.1367 6.4141-16.566-5.8789-34.734-6.9453-49.16-18.168-5.3438-4.2734-11.758-6.4141-18.703-9.0859-33.664-11.223-65.191-27.789-99.395-36.336-21.375-5.3438-41.68-14.961-62.52-21.91-22.977-8.0156-47.023-10.688-71.07-16.566-11.223-2.6719-23.512-2.1367-31.527-13.359-1.0703-2.1367-5.8789-3.7422-8.5508-3.207-9.6172 2.1367-17.633-1.6016-26.184-4.8086-3.7422-1.6016-9.6172 0-9.6172-5.3438s5.8789-4.8086 9.6172-5.3438c3.7422-0.53516 6.9453-0.53516 11.223-0.53516 3.207 0 6.9453 0.53516 9.0859-1.6016 4.2734-5.3438 10.152-4.8086 16.031-5.3438 21.375-1.0703 42.215-6.9453 65.191-6.4141-2.1406-5.3555-4.8125-8.0273-8.0195-9.0938zm15.496 37.938c2.6719-0.53516 5.8789-1.6016 4.2734-5.3438-0.53516-2.6719-2.6719-4.8086-5.8789-4.8086-3.207 0-6.4141 2.1367-9.0859 0.53516 2.6719-1.6016 5.8789-3.7422 8.5508-5.3438-3.207-3.207-5.8789-0.53516-9.0859 0.53516-5.8789 2.6719 1.0703 3.207 0.53516 4.8086 1.0742 10.688 3.2109 12.824 10.691 9.6172zm45.957-8.5469c-4.2734-2.1367-7.4805 0-10.152 3.7422-0.53516 0.53516 0 3.207 1.0703 3.207 3.7422 2.6719 6.4141 1.0703 9.6172-1.0703 1.0703-1.0703 1.0703-2.1367 1.6016-3.7422 5.8789 3.7422 11.758 0 17.102-1.0703 3.7422-0.53516 6.9453-4.8086 11.223-2.6719 0 0 0.53516 0.53516 1.0703 1.0703 0.53516 1.6016 0.53516 1.6016-1.0703 2.1367-5.8789 4.8086-15.496 3.7422-20.305 11.758 16.566 1.6016 19.238 0 20.305-11.758 5.3438 9.6172 9.6172 10.688 18.168 7.4805 9.0859-3.7422 9.0859-3.7422 10.152 4.8086 0 1.0703 0 2.1367-0.53516 2.6719-4.2734-6.4141-9.6172-4.2734-15.496-1.6016-2.1367 1.0703-4.2734 2.1367-3.7422 4.8086 0.53516 1.6016 2.1367 3.207 3.7422 3.7422 6.4141 1.0703 12.289 0.53516 15.496-6.9453 4.2734 4.2734 5.8789 9.0859 6.9453 14.43 0.53516 2.6719 2.1367 5.3438 5.8789 3.7422 3.207-1.0703 2.1367-4.2734 1.6016-5.8789-1.0703-3.207-3.207-6.4141-2.6719-10.152 2.6719-1.6016 3.7422 0.53516 4.2734 2.1367 5.8789 14.43 5.8789 14.43 21.91 9.0859-0.53516-6.9453-4.2734-11.758-7.4805-17.102-13.895-21.375-27.789-41.68-41.68-63.055-2.6719-3.7422-2.6719-8.0156-10.152-6.9453-3.7422 0.53516-4.2734-5.3438-6.4141-8.5508-10.688-17.102-21.375-34.199-32.062-51.301-4.2734 3.207-2.1367 6.4141-1.6016 9.0859 2.6719 17.633-1.0703 36.336 4.8086 53.973 0.53516 0.53516 0 1.0703 0 1.0703 0 2.1367-0.53516 4.8086-3.207 5.3438-1.6016 0.53516-3.7422 0.53516-4.8086-1.6016-2.6719-3.7422-5.3438-8.5508-8.5508 0-12.289-3.7422-22.977 8.0156-35.27 3.207 6.9453-4.8086 15.496-3.7422 21.91-6.9453 0-1.0703 0.53516-1.6016 0-2.1367-2.6719-3.7422-5.8789-10.152-10.688-8.5508-6.9453 2.6719-13.359 8.0156-11.223 17.633-5.3438-8.5508-5.3438-8.5508-16.566-9.0859 0.53516-4.8086 7.4805-3.207 8.5508-8.5508-4.8086-2.6719-9.6172 0-12.824 3.207-2.6719 2.6719-1.6016 5.8789 1.0703 8.5508 9.6172 7.4805 20.305 11.758 30.992 17.102 2.6719 1.6016 4.8086-0.53516 7.4805-2.1367 5.3438-3.207 10.688-3.207 17.102-2.1367-3.207 6.4141-10.152 2.6719-13.359 8.0156 6.9453 11.223 14.43-1.6016 21.91 1.6016-5.3438 3.207-8.5508 7.4805-11.758 11.758-3.7422 5.8789-2.1367 9.6172 0.53516 13.359 2.6719 3.7422 6.9453 0.53516 9.6172-1.0703 1.6016-0.53516 3.207-1.0703 5.3438-2.1367 3.7422 2.6719 2.6719 6.9453 2.6719 10.152 1.0742-0.011719 0.53906-1.6172-0.53125-2.6836zm-135.2-104.2c5.8789 5.8789 13.359 4.8086 16.566-0.53516 5.3438-8.5508 8.0156-1.6016 9.6172 1.0703 2.1367 6.4141 3.207 12.824 11.223 15.496 3.207 1.0703-0.53516 3.7422-1.0703 5.3438-1.0703 2.1367-1.6016 4.8086 0.53516 5.8789 3.7422 2.6719 6.9453 1.6016 10.152-0.53516 1.6016-1.6016 1.0703-4.2734 0-6.4141-1.6016-2.6719-2.6719-5.8789-4.2734-8.5508-0.53516-1.6016-0.53516-3.7422 1.0703-4.2734 2.6719-1.6016 4.8086 0.53516 4.8086 2.6719 1.6016 8.0156 5.8789 14.43 8.5508 21.375 2.6719 5.8789 6.4141 6.4141 14.43 2.6719 6.9453-2.6719 2.6719-6.9453 1.6016-11.223-2.1367-6.4141-9.0859-9.0859-13.359-13.359-16.031-19.238-34.734-35.805-52.902-52.902-0.53516-0.53516-1.0703-1.0703-2.1367-2.1367-19.238-32.062-48.094-55.574-71.605-84.43-20.305-24.582-42.215-46.492-60.918-72.676-6.9453-10.152-16.566-18.703-25.117-29.391-1.0703 8.5508 0.53516 14.43 2.6719 20.84 4.2734 13.895 4.2734 27.789-1.0703 41.68-1.0703 2.1367-1.6016 4.8086-1.6016 8.0156-2.1367 19.238-11.223 33.664-28.855 41.68 2.1367 4.2734 5.3438 1.0703 8.0156 3.7422-3.207 6.4141-13.359 3.7422-17.102 11.758 17.633-3.7422 33.133-11.758 48.094-19.238 1.6016 4.8086-2.1367 5.3438-4.2734 6.4141-21.375 11.758-44.352 18.703-66.797 29.391-6.4141 3.207-11.223-3.7422-18.703-0.53516 9.0859 5.8789 15.496 9.0859 26.184 4.8086 19.773-8.0156 41.68-11.758 61.988-20.305-3.207 6.4141-9.6172 7.4805-16.031 9.6172-12.824 5.3438-25.648 9.6172-38.477 14.961-1.6016 0.53516-3.7422 1.6016-2.1367 4.2734 0.53516 1.6016 2.6719 2.6719 4.8086 2.6719 3.7422-0.53516 6.4141-4.2734 10.688-5.3438 18.168-5.3438 36.871-11.223 56.109-16.566 1.0703 6.4141-2.6719 14.43 8.0156 14.43 3.207 0 3.7422 1.6016 1.6016 3.7422-1.6016 1.6016-3.207 3.207-1.6016 5.8789 2.1367 3.207 4.8086 1.6016 7.4805 1.0703 6.4141-1.0703 10.688-6.4141 17.102-6.4141 1.6016 4.8086-1.6016 5.8789-3.7422 6.9453-3.7422 1.6016-6.9453 2.6719-10.152 3.7422-2.6719 1.6016-5.8789 2.6719-5.8789 6.9453 0 2.1367 1.0703 3.207 3.207 4.2734 3.7422 1.6016 8.5508 1.0703 9.6172-2.1367 2.6719-4.8086 3.207-6.4141 8.0156-2.6719 3.207 2.1367 7.4805-1.0703 11.223-1.6016 1.6016 1.6016 0.53516 2.6719-1.0703 3.207-2.6719 1.6016-9.0859 1.6016-6.4141 6.4141 2.1367 4.2734 6.4141 1.0703 9.6172 1.0703 3.7422-0.53516 7.4805-3.207 12.824-1.0703-3.207 5.3438-9.0859 5.8789-13.359 8.0156-2.1367 1.0703-3.7422 2.6719-2.6719 5.8789 1.0703 2.1367 3.207 3.207 5.3438 2.1367 7.4805-2.1367 14.43-3.7422 20.84-6.9453 4.2734-2.1367 6.4141-2.1367 8.5508 2.1367 2.1367 4.2734 4.2734 9.6172 9.6172 10.688 2.6719 0.53516 1.6016 1.6016 1.6016 3.7422 1.0703 9.6172 1.0703 9.6172 11.223 8.0156 5.3438-1.0703 10.688 0 16.031-3.207-2.6719 5.8789-9.0859 5.8789-12.824 8.5508-8.0156 4.8086-9.0859 6.9453-4.8086 14.43 0.53516 1.6016 2.1367 3.207 3.207 4.2734 12.289 6.9453 25.117 14.43 40.613 12.824 2.1367 0 4.2734-1.0703 6.4141-2.1367 3.7422-1.6016 2.6719-4.8086 1.6016-6.9453-0.53516-2.6719-2.6719-3.7422-5.3438-3.207-2.1367 0-5.3438 0-6.4141 1.0703-5.3438 7.4805-11.758 2.1367-18.703 1.6016 4.8125-4.8125 6.9531-8.0195 8.5547-10.691zm138.94 119.7c-6.9453-5.8789-8.5508 6.4141-14.961 4.2734-5.3438-2.1367-10.688-1.0703-16.031 4.2734 14.43 4.8086 28.855 7.4805 42.75 8.5508 6.4141 1.0703 12.289-4.8086 18.703-8.0156 1.6016-0.53516 1.0703-2.1367 1.0703-3.207-0.53516-1.6016-2.1367-2.1367-3.207-2.1367-4.8086 0.53516-10.152 1.6016-14.961 2.1367-5.3438 1.0703-10.688 3.207-16.031 1.0703-1.0742-3.207 3.2031-4.2734 2.668-6.9453zm86.566 43.816c9.6172 8.5508 18.703 1.6016 28.855-1.0703-3.207-6.4141-2.6719-14.43-12.824-11.758-1.6016 0.53516-3.207-1.0703-3.7422-2.6719-3.7422-9.0859-10.152-2.6719-14.961-3.207-2.1367 0-2.6719 2.6719-2.1367 4.2734 1.0703 3.207 0.53516 6.9453 5.3438 6.4141 3.207 0 6.9453-2.6719 11.223 0.53516-3.207 5.3477-9.0859 2.6758-11.758 7.4844zm-99.926-19.77c17.102 8.5508 34.734 15.496 53.973 18.703-17.102-8.5508-35.27-16.031-53.973-18.703zm-196.65-164.59c5.8789-1.6016 12.289-3.7422 18.168-5.3438 2.6719-0.53516 3.7422-2.6719 3.207-5.3438-1.0703-2.1367-2.1367-4.2734-4.2734-4.2734-7.4805 1.0703-14.961 3.207-20.84 9.0859-1.0703 1.0703-1.0703 3.207-0.53516 4.8086 0.53125 1.5977 2.668 1.5977 4.2734 1.0664zm184.36 125.57c3.207-3.207 1.6016-5.8789-0.53516-9.0859-2.6719-2.6719-14.961-4.2734-16.566-1.6016-2.1367 2.1367-0.53516 10.152 2.1367 12.824 2.6758 2.6758 11.762 1.0703 14.965-2.1367zm-157.11-115.42c1.6016-1.6016 2.6719-3.7422 1.6016-5.8789-1.6016-2.6719-3.207-4.2734-5.8789-3.7422-4.8086 1.6016-10.152 2.6719-14.43 6.9453 7.4883 7.4844 12.832 8.5547 18.707 2.6758zm-122.37-58.246c-2.1367-6.4141-5.3438-7.4805-10.688-4.2734-3.207 2.1367-4.8086 4.8086-1.0703 7.4805 3.207 3.207 6.9453 6.9453 12.824 7.4805 1.0703-4.2773 0-7.4805-1.0664-10.688zm362.84 203.59c-2.6719-2.6719-12.824-2.1367-15.496 0.53516-2.1367 3.207-1.0703 6.4141 1.0703 8.5508 2.1367 3.207 10.688 2.1367 14.961-2.1367 2.1367-2.1406 1.6016-4.8125-0.53516-6.9492zm-292.84-183.82c-10.688-4.2734-16.031 6.4141-24.047 6.9453 11.223 6.9492 11.223 6.9492 24.047-6.9453zm302.99 206.8c2.6719 1.6016 5.3438 2.1367 7.4805 1.0703 2.6719-1.6016 1.0703-5.3438 0-7.4805-1.0703-3.207-3.7422-4.8086-6.9453-3.7422-3.207 1.0703-6.9453 0.53516-11.223 3.7422 3.207 3.2031 7.4805 4.2695 10.688 6.4102zm-352.15-214.29c2.6719-2.6719 2.1367-6.4141 0-8.5508-3.7422-3.7422-8.0156-1.6016-10.688 1.0703s0 6.4141 1.0703 9.6172c4.2734 3.207 6.9453 0.53516 9.6172-2.1367zm191.3 90.844c-1.6016 0.53516-3.7422 0.53516-4.2734 3.207-0.53516 1.6016 0.53516 3.7422 2.1367 4.2734 4.2734 2.1367 8.0156 3.7422 13.895 4.2734-2.1406-6.4102-2.1406-13.891-11.758-11.754zm-166.19-87.102c1.0703 0 1.0703-2.1367 0-3.207-1.0703-1.0703-2.1367-2.1367-3.207-2.1367-3.207 0-6.9453 0.53516-8.5508 3.207-2.1367 3.207-5.3438 4.2734-9.6172 6.4141 10.152 5.875 14.43-3.7422 21.375-4.2773zm-13.895-32.062c-2.6719-3.7422-6.4102-1.0703-9.6172 0-3.207 2.1367-2.6719 4.8086-0.53516 6.9453 3.207 4.2734 6.4141 1.0703 9.6172 0 3.207-2.1367 2.6758-4.8086 0.53516-6.9453zm-17.633 11.223c1.6016-1.6016 1.6016-4.8086 0-6.4141-3.7422-3.7422-7.4805-1.0703-10.688 1.0703-2.1367 1.0703-1.6016 3.7422 0.53516 6.9453 3.207 3.207 6.9453 1.6016 10.152-1.6016zm24.047 9.082c2.6719-1.6016 2.1367-4.2734 0.53516-5.8789-3.207-3.207-6.9453-1.6016-9.6172 1.0703-2.1367 2.1367-1.6016 3.7422-0.53516 5.8789 3.7383 3.7383 6.4102 1.0664 9.6172-1.0703zm237.8 183.29c3.7383 0.53516 7.4805 0 9.6172-4.2734 0.53516-0.53516 0-2.1367-0.53516-2.6719-3.207-3.207-6.4141-1.0703-10.152 0.53516-1.6016 0.53516-3.207 1.0703-3.7422 3.7422 1.0703 2.1328 2.6719 2.668 4.8125 2.668zm150.69 59.852c-1.0703-4.2734-0.53516-8.0156-4.2734-9.6172-3.7422-1.6016-6.9453 0.53516-8.5508 4.2734 3.2031 3.2031 6.9453 3.7383 12.824 5.3438zm-226.04-72.141c9.6172 4.2734 14.43-0.53516 20.305-3.207-6.4102-1.0703-12.824-2.1367-20.305 3.207zm-11.223-75.348c2.1367 1.0703 4.8086 2.6719 7.4805 0 1.6016-1.6016 1.0703-3.207 0.53516-4.8086-1.0703-3.207-3.207-4.2734-6.4141-3.207-2.1367 0-4.2734 1.0703-5.3438 3.207-0.53125 2.6719 1.0703 4.2734 3.7422 4.8086zm141.61 109.55c3.7422 2.6719 7.4805 4.2734 13.359 3.7422-4.8086-9.0859-4.8086-9.0859-13.359-3.7422zm-92.445-28.32c1.0703-1.0703 0.53516-3.7422-0.53516-3.7422-4.2734-1.0703-9.0859-0.53516-13.359 4.8086 5.8789 2.6719 10.152 2.6719 13.895-1.0664zm28.855-28.859c-6.4141-8.5508-6.4141-8.5508-18.168-12.824 4.2734 7.4805 10.688 8.5508 18.168 12.824zm-191.3-114.35c1.6016-1.6016 1.0703-3.207-0.53516-4.8086-4.8086-4.8086-7.4805-1.0703-12.824 2.1367 5.8789 2.6719 8.5508 8.5469 13.359 2.6719zm181.68 149.62c-1.0703 1.0703-1.6016 2.6719 0 3.207 3.207 2.1367 6.4141 3.207 8.5508-1.0703 1.0703-1.0703 1.0703-2.1367-0.53516-3.7422-3.2031-1.0664-5.875-0.53125-8.0156 1.6055zm185.43 72.141c-1.0703-5.3438-3.7422-10.152-9.6172-12.824-1.0703 7.4805 6.4102 8.5508 9.6172 12.824zm-214.29-196.11c-1.0703-1.0703-2.1367-2.1367-3.207 0-1.0703 2.1367 0.53516 2.6719 2.1367 4.2734 1.0703 1.0703 2.1367 1.0703 3.7422 0.53516 0.53516-2.6719-1.6016-3.7422-2.6719-4.8086zm22.445 42.75c-0.53516 0.53516 0.53516 2.6719 1.0703 3.207 1.0703 1.0703 2.1367 1.0703 3.207 0 0.53516-1.6016 0-2.1367-1.0703-3.207-0.53516-0.53516-2.1406-1.0703-3.207 0zm35.27 7.4805c-1.0703-1.0703-2.1367-1.0703-2.6719 0.53516 0 1.0703 1.0703 2.1367 2.1367 3.207 0 0 1.6016-0.53516 2.6719-0.53516-0.53516-1.6055-1.6055-2.6719-2.1367-3.207z" fill="#d55d2d"/>
   </g>
  </g>
  <g clip-path="url(#b)">
   <g clip-path="url(#a)">
    <path d="m549.77 576.49c-1.0703-5.3438 5.3438-6.4141 6.9453-11.223-12.289-1.6016-21.375 5.3438-32.062 6.4141-1.0703 0-2.1367 2.1367-1.0703 3.207 1.0703 1.0703 2.1367 2.1367 3.207 2.1367 3.207 1.0703 6.4141-1.0703 9.6172-2.1367 4.8125-2.6758 9.0898-1.6055 13.363 1.6016 0.53516 0.53516 0 0 0 0z" fill="#d55d2d"/>
   </g>
  </g>
 </g>
</svg>
