<svg xmlns="http://www.w3.org/2000/svg" version="1.1" viewBox="137.23 137.25 925.55 925.55">
 <defs>
  <clipPath id="b">
   <path d="m318 353h567v446h-567z"/>
  </clipPath>
  <clipPath id="a">
   <path d="m332.82 1062.8 729.96-195.59-195.59-729.96-729.96 195.59z"/>
  </clipPath>
 </defs>
 <g clip-path="url(#b)">
  <g clip-path="url(#a)">
   <path d="m321.3 432.92c-1.9023-4.1836-5.3711-14.207-0.26172-15.578 60-18.426 119.22-39.77 176.92-63.836 5.6445-2.293 11.445 4.7578 14.273 9.4766 1.707 3.4531 7.0273 14.547 0.65234 17.039-51.332 21.578-103.45 40.234-156.14 56.703 90.258 3.9805 182.17 8.3008 268.27 37.648 39.641 13.633 78.266 32.23 112.23 56.773 37.855 27.41 68.324 62.277 91.543 102.21 27.758 48.109 45.148 101.35 54.852 155.08 1.1719 4.3789 0.015625 11.73-6.0742 9.4492-6.0859-2.2812-11.355-10.258-12.387-17.023-8.6211-43.852-21.281-88.184-42.117-127.98-19.32-37.07-44.965-68.535-78.391-94.004-66.645-50.207-148.8-73.574-229.81-83.941-43.723-5.4961-87.391-7.8789-131.79-10.066 27.531 23.918 50.934 52.855 68.887 84.816 1.9023 4.1836 5.9062 13.281 0.65234 17.039-5.4492 3.0234-11.836-6.2188-14.273-9.4766-24.395-44.316-61.48-80.539-107.17-105.07-5.5547-3.207-10.285-12.109-10.391-18.34 0 0-0.19531-0.73047 0.53516-0.92578z" fill="#d55d2d"/>
  </g>
 </g>
</svg>