<svg xmlns="http://www.w3.org/2000/svg" xmlns:xlink="http://www.w3.org/1999/xlink" width="100%" height="100%" viewBox="0 0 199 288" preserveAspectRatio="xMidYMid meet" ><g style="fill:rgb(4,5,7);fill-rule:evenodd;stroke:rgb(4,5,7);stroke-width:0.1" id="l1"><path d="M0,0h199v288h-199zm150,74h1v2l1-1h1l1,2l-1-2l-1-3v2z"/><path d="M49,82h3c0,2,1,2,3,3l1,1v1l-1,1h-2v2l-3,3h-1v2h-1l-1-2v-8l1-2zm13,2h1l2,1l1,1v3c-2,0-2,1-3,2h-2l-1-1v-3l1-2zm22,16h1l3,1c0,2,1,2,3,4c0,2,1,1,2,1l1,3v-1h1c0,3,1,1,4,1v1l-1,2h-1l-1-1v2l-1,2l-1,1h-1v3l-1,2h-1v3h-5l-1-1v-1c1-6,0-6-2-10c0-4-1-4-2-5v-1h-3v-1l1-2c4,0,4-2,5-3zm50,5h4l1,2v2h2l1,1v3c-4,0-4,1-5,2h-1v2l-2,4l-1,1h-2l-1-1l2,2v4l-2,2l3-1h1v1c-1,1,0,1,1,2v1h-2v4h2v1l1-2h5l1,1v1l1-1h2l1,2v1l1-2h1l2,1v4l-2,1h-1l1,1v1l-1,1h-1v3h1v2h3l1,1c0,2,1,2,3,4v1l-2,1h-1l-1-1v-1h-4l-4-1l-2-1l-1-1v-1h-2c0-2-1-2-3-4v-2l1-1h-2l-1-1l-1-2v-1h1l1,1c0,1,1,1,1-2h-1l-1-1l-1-2v-1c1-3,0-3-2-7c0-2-1-2-3-3l-1-1l-1-4l-1-5v1h-1v-1l1-2h1v-3l-1,2h-1v-2l1-2h1c0,2,1,1,2,1v-2h1l2,2v-1c2,0,1-1,1-2c3,0,3-1,4-2z"/><path d="M71,109h7l2,2v2h-2c-5-1-5,0-6,1l-2,1h-1v2l-1,1h-1l-1-1v-2l1-2zm5,6h1l2,1v4h-3v-3c-2,0-1,1-1,2h-1l-1-1v-1l1-1zm65,2h5l2,1l2,2l2,4v4l-1,1h-1l-1-2c0-3-1-3-2-4v-1h-3l-1-1v-1h-3v-1zm12,9h2l1,2v3h-1l-1-1l-1-2zm-77,2h3v2l-1,1l2-1h1v2l-1,3l-2,2h-1l1,1v1l-1,1h-2v2l-2,1h-2l-3-1l-1-1v-6c1-1,0-1-1-3v-1l1-1l4-1z"/><path d="M59,150h2l1,1v2l-1,2h-1l1,5v1l-2,1h-1l1,3v2l-1,1h-1c0,2,1,2,1,1l1-1h3v1h-2v2l-2,2h-1l-1-3c0-2-1-1-3-1l-1-1v-3c1-2,0-2-1-4v-8h2c0,3,2,3,2,1l1-2l1-1zm90,13h2l2,2l1,3q0,1,3-5h1l1,3v2l-1,2h-2v3l-1,1h-1v4h-1v2h2v1h-2l-1-1v3h-1l-2-1v4h-1l-4-4v-5h2c0,2,1,1,2,1v-3h1l-2-2v-5l1-2h1l-1-1v-1z"/><path d="M91,165h14l1,1v1h8l2,2v1h2v4l-2,2l-2,1h-3l-4-1l-1-1l3,3v1l6-1h3l1,1v5h-1l-1-1v2h2v1c-2,0-2,2-1,2l1,1v1h-2v3h-1l-2-1v-1l-1,1h-8l1,1v3l-1,2l-1,1h-1v2l-1,2h-1l-1-7v-5q2-1-2,0h-9l-2-1v-1l-1,1h-1v-2l1-3h1l-2-2v-2c2,0,1-2,1-4l1-3h2l1,1v1h8c0-2-1-1-7-1l-2-1l-1-1l-1-2v-2l1-3z"/><path d="M46,201h1l1,7v1h-2zm110,9h2v14h-3c0-2-2-2-2-1l-3,3l-2,1c-2,0-2,1-3,2l-4,2l-3,1h-2c-1-1-1,0-2,1h-1c0-2-1-2-2-3v-1l1-2h1l1,1v1h2l2,1l-2-2v-3h1c1,1,1,0,4-3l2-1h2v-2l1-1l1-1c2,0,2-1,3-2c2,0,2-1,6-5zm-32,19h1v4l1-2h1l1,1v2l-2,1h-7v-2l3-3h1l1,3zm8,27h2v1l-1,4h2v1c-1,1,0,1,2,3v1h-1l-1-1v-1h-3v-1c1-1,0-1-2-3v1c-1,2,0,2,1,3v3l-1,1h-1v-1l1-1h-2v-1l-1,2c-2,0-1,2-1,10h-1c0-3-1-2-4-2l-1-1v-1c1-5,0-5-1-6l1,1v3l-2,4l-1,1h-1l-1-1v-3l-1,1h-1v6l-1,2h-2v-2l1-4l1-3h1c0-2-1-2-2-3v5h-2l-1-5v6l-1,2h-2v2l-2,1h-1v-2l-1,2h-1l-1-1v-5l-1,3h-1l-1-2q0-1-1,2h-1l-1-1v-1l1-1l-1,1h-1v-2v7l-1,1h-1l-4-2v-7h1v2h2l1,3v-5l1-1l3-1l4-1h7v4v-1l1-1h1v-3h3l1,1l-1-1v-1l3-1h2l1,5v-6c4,0,4-1,5-2c2,0,2-1,3-2l2-1h2l1,1v-1l1-3z"/></g><g style="fill:rgb(65,75,83);fill-rule:evenodd;stroke:rgb(65,75,83);stroke-width:0.1" id="l2"><path d="M59,14h1v2h-1zm18,1h2l1,1v1l-1,1h-1v-1l1-1h-2zm-20,4h1v2h-1zm23,2h1v2h-1zm93,5h1v1l-7,7h-1v-1zm-122,10h2v1h-2zm136,1h1v5h-1zm-137,4h1v2l-1,1h-1v-1zm40,2h1l1,1v3h-1l-1-3zm-41,6h1v2h-1zm43,0h1v2h-1zm53,8h1v2l-1,1h-1v-1zm-50,3h1l1,1v8c-1,1,0,1,1,3v1h3v2c-6,0-6,1-8,2c-3,0-3,1-5,2c-2,0-2,1-3,2h-1c0,3,4,3,3,2v-1h2l1,1c0,2,2,1,5,1l1,1l-3-3v-2h7l1,2v-2c2,0,2-1,3-2h1c0,3,1,3,2,4v1h-1l-2-2v1c-1,4,1,2,5,2l1,1v3l-1,1h-1l-1-1c0-3-1-1-3-1l1,1v7l-2,1h-1l-1-1v-2h1l1,1v-2h-3l-1-1l-1-2v3h2l1,4v3h-2c0-3-1-2-3-2l-1-1v3l-1,1h-1v2h-1c0-3-3-3-8-4v1c-2,0-2,1-4,3c-2,0-2,1-3,2l-4,2c-3,0-3,2-4,3h-1l1,1v1h-1l-1-1v2l-1,1h1v1h-1c-1-1-1,0-3,1h-1v2l-1,2h3v-2h1v3l1-1h1l1,1v-3l1-2l1-1h1v1h-1c0,5,1,5,2,6v1h3l-2-1l-2-2v-3h2c0,4,3,4,4,5v1l1-1h3l1,1v1l-2,1c-2,0-1,1-1,2l-1,1h-2v-1l2-1c-2,0-2,1-3,2h-4l-1-1v-1h-4c0-2-3-2-3-1l-1,1h1c0,4,1,4,2,5v1c-1,1,0,1,1,5v1l-4,1h-1v-3h-4v-1h4c0-3-5-3-5-1l-1,1h-1v5l1-1h1v3l-2,1h3c0,3,2,2,15,2v-1l1-1c4,0,4-1,9-6h2v-2l1-1l-2,1h-1v-1l1-2c3,0,2-1,2-3l1-2h1v2l-1,2l2-1h1l1,1v-4l1-1h4l1,1v1h-2l-1-1v4l-3,1c-3,0-3,2-4,3h-1v4l-1,1c-2,0-2,1-3,2c-2,0-2,1-3,2h-3v3l-1,1h2v1c-3,0-3,1-5,2h-3v-1l1-1l-1,1l-2,1h-4c-3-1-3,0-5,1h-1v2l-2,2h-1c0-2-1-2-3-4v-1c4-1,3-1-1-2v2l-1,1h1l2,1v1h-2l-1-1v3l-1,1h-1v-4h-2v5h-2l-1-4v-1h1q0,1,1-4h1l-1-4v1h-1v-2l1-7l1-3h1l1,2v1c-2,0-2,3-1,2h1v1l-1,2l-1,1l1-1h1v-2h1l1,1v-3l1-3l1-2l1-1h1v-3h1l-1-1v-1l1-1h1l-1-1v-1l-2,2h-1l1,2v3c-2,0-2,3-3,5h-1v-10h1q0,1,1-6h1v3l1-4l1-1h1l-1-1v-5l1-2l-2,2h-1v4l-1,1h-1v-1l1-4h1l-1-1v-7l1-4l1-3l-1,3h-1l-2-2v-1l1-1h1l1,1v-2l1-2l6-6h1v-2l1-1h1v1c-1,8,0,8,3,9v-1l2-1h2v-2l1-1h1v-2h1l1,1v-1l1-2l1-1c4,0,3-2,3-3l1-1h2l1,1v-1l1-2l2-1h1v1l-1,1c2,0,2-1,3-2h1l2,1v-1c3,0,3-1,4-2c4,0,3-2,3-3l-1,1h-1v-2l1-1h-2l-2-1v-1l1-1h1l1,1c0,1,2,1,1-5zm-50,88h2l1,1v-1l2-2h2l1,1v-2l1-2l-1,2h-2l-2-1v1l-3,3z"/><path d="M137,71h1l3,1v2h2l1,1v1h2v1l-1,1h2v1c-2,0-1,1-1,2l-2,1h-2v-1h2l-2-1v-1l3-1c-4,0-4,1-6,2h-1h3v1c-2,0-2,1-3,2h1l2,1c0,2,2,2,4,3c0,3,1,3,3,5l1,2c0,2,1,2,3,3v2h2l3,3l1,3v1h3v3h3l1,1v3l1-1h1c0,4,1,4,2,6v-1h1v12l-1,4l-1,3l-1,1h-1l1,1v1c-2,0-1,1-1,3c-2,0-2,2-1,2l1,1v12h-4c0-4-2-4-2-2l-1,1h2v1h-2l-1-1v3h-2v-1l1-1h-1c0-2-1-2-2-3v-1h1v1h3v-2c2,0,1-1,1-3c1-1,0-1-1-2v-1h2c0-2-1-1-2-1c0-5-3-5-2-3v1h-1c-1-1-1,0-2,1h-1l1,1v1l-1,1l-2,1h-1l-1-1v-1l1-2l1-1h1v-3l2-4h1v-4h4l2,4v2c5,0,5-3,6-4h1v-2h-1c0-2-1-2-2-3v-2l2-1h-2l-2-1l1,2v1l-1,2h-1l1,1v2h-1v-2h-2l-1-1v-1l2-1h1v-3h1l-2-1v-1l1-1h1l3,3l-1-1v-1c1-2,0-2-1-3v-1v2h-2l-1-1v-1h-2v-1l4-2l-3,1h-1l-2-1l-1-1v-1h-2l1,1l1,2v1l-1,1h1l2,1v5l1-1h2v1h-2v4h-1l-2-4c0-3-2-3-3-4c0-4-1-4-3-6c0-1-2-1-5-2l-1-2v-1h5l1,1c0-3-1-3-2-4v-1l1-1h-3v-1h-2l4,4v1h-6l-1-1l-1-2c0-2-1-2-2-3v-1l-1,1c-2,0-2,1-3,2l-2,1h-1c0-2-2-1-4-1v-4c-2,0-1,1-1,3h-1v-2l-1,3h-1l-1-2v1l-1,2c-2,0-1,1-1,2l-1,2c-1,1,0,1,2,5l1,3c0,2,1,2,2,3l1,2v3v-1h1v3h-1l-3-1v1c-2,0-1,1-1,2l-1,2h-2h1l1,1v1h2v1l1-1h2l1,1v2l-1,1h-1l-2-1l2,2v1l-2,1h4l1,3v2c-1,6,0,6,1,7c0,2,1,2,2,3l1,3c0,4,1,4,2,5c0,2,1,2,3,4v2h4v-2h1l5,1v1h-3l1,1v1c-2,0-1,2-1,3c2,0,2-1,3-2h1v1l-1,1l2-2h1l1,1v1l-2,4h-1v-2l1-1l-2,1h-1l-2-1l-1-1v2h3l1,5v1h-1l-1-1v-1l-3,1h-2v-1l1-2l-1,2h-2v2h-1c0,2,1,2,2,3v-2l1-1h2l1,1v-2h1v3l-1,3l-1,1h-1l-1-1l1,1v1l-1,1h-1v2h-1v-2l1-2l-1,1h-1l-1-1v3l-1,1h-1v-1l1-1l-1,1c-4,0-4,1-6,2c-2,0-2,2-4,6h-1v3l-1,3h-1v-3l1-3h1v-4h2c0-3-4-2-6-2v-1c2,0,1-1,1-2h3l2,1l1,1l-2-2v-1h-3l-1-1v-1h1l2,1l-1-1v-2c2,0,1-2,1-4c1-2-1-2-2-3v-1c1-3-1-3-1-2l-1,1l-2,1h-2v-1l2-1c2,0,2-1,3-2h1l-1-1v-2l1-1h-1l-2-1v-2h-2l-1-1v-1h-4l-2-1l-1-1v-1h-5v2h-7c-1-1-1,0-4,1c-2,0-2,1-3,6l-2,4l-1,1c-3,0-2,4-2,5l-1,1l-2,1h4v1l-2,2h-1l1,1v1l-2,2h-1l1,1v1h-1c-1-1-1,0-2,1h-1l-1-1v-2l2-2h-1c-1-1-1,0-2,1h-1c0-2-1-2-2-3v-1l1-1h-1l-2-1v2h-1v-6h1l1,1v2h4l2,2v-4v1h-1v-2l1-3c3,0,2-1,2-3h2v-4c2,0,1-1,1-2l1-3h1l-1-1v-1l1-1c1,0,1-2,2-5l2-4h1l1,1c0-2-1-2-2-3v-1h2l5,1v1l1-2h1c0,3,1,3,2,4l-1-2v-1c2,0,1-1,1-2h1l3,1l-1-1v-1h-2v-3h2l1,1l-1-1v-3h1l1,1v3l-1,1l2-2h3v1h-2v2h2v-2h1l1,1v-2h2l1,1c0,5,1,5,3,7v1h2l2,2v1c2,0,1-1,1-2l2-1h1v1l-1,2c-1,1,0,1,2,3l1,3v1l-1,1h2l1,4v1l-1,1h-1v2h-1h2l1,2v4l-2,1h1l2,1v1h-2l2,1v1l-2,1h2l2,1l-1-2v-1l2-1h1v4l-2,1c-2,0-1,4-1,5h2v-3h3l1,1l-2-2v-2l1-1h1v-6l4-1h-1l-1-1v-1h-4v-1c2,0,2-3,1-3l-1-1v-2c1-1,0-1-2-3l-1-2c0-4-1-4-2-6c0-2-1-2-2-3l-1-2v-6h-1c0-2-1-2-2-3v-2h-3v-2l2-1l-2,1h-2l-1-1v-1h-2l-2-1l-1-1v-1l1-2h-3v-1l1-3l-1,1h-1l-1-2v-2l2-1h-1v-3h-2v-2l1-1h1v-4h1l-1-1v-11l1-3h1l-1-4v-1l1-2l3-1h1l1,3v1l2-2h1h-3v-1l1-3h1l1,1c0-2-1-2-2-3v-1l3-1h2l1,2v-2h1l1,2v1c-2,0-1,2-1,4l1-1c4,0,4-1,5-2l2-1h2h-8l-1-2v-1l1-1l3-1h1l1,1v1h3c0,2,1,1,6,1v2h2l1,1v-2h-2l-1-2v-1h-2l-2-1l-1-2v-1h-3v-1c3,0,3-1,4-2l2-1h1z"/><path d="M187,71h1v3l-1,2h-1v4h-1l1,1v1h-1l-1-1v-2l1-4zm-137,6h2l2,2v1l3-1h1v2l-2,1h-2l-2-2v-1h-3v-1zm39,3h3v2h-2l-1-1zm19,1h1v2h-1zm39,0h1v1l-1,1h-2v-1zm37,5h1l1,1v3h-2zm-138,7h2v1h-2zm138,3h1v2h-1zm-12,1h1l1,1v2h-1l-2-1v-1zm-69,2h2v2h-2zm1,3h1v2h-1zm-29,5h3l3,1l1,1l1,4v3h2v2l-1,4h-1l-1-1l-1-3l-1-7c0-2-2-2-5-3zm30,0h1v3h-1q0-1-1,2l-2,2h-1v2l-1,2l-2,1c-2,0-1,1-1,3h-2v2h-1l-2-1v-1l1-2l1-1h1v-2h1l1,1v-3l2-1h2v-3h1l1,1v-3z"/><path d="M76,112h2v1h-2zm-2,1h1v2h-1zm5,1h1v4h-1v-2h-2v-1zm59,1h7l1,1v1c-6,0-6,1-7,2h-1v2h-2v-3l1-1h1zm36,3h1v3h-1zm-33,2h1l2,2v1h3v3h2v3h-1l-1-2v1l-3,3l2-1h1v1l-1,1h1l2,1l-1-1v-2c3,0,3-1,4-2h1v4c-2,0-2,1-3,2h-7l-3-1v-1l-1,1h-1l-1-1v-2h-2v-2h4l1,1v1c2,0,2-1,3-2c2,0,2-3,1-3l-1-1v2h-1l-1-2v-1h1l1,1c0-2-1-2-2-3zm-7,2h3v1l-1,2l-1,1h-2l-1-2v-1h3h-1z"/><path d="M171,132h1v2h-1zm-3,9h1l1,1v1c-1,2,0,2,2,6v4h-1l-1-1v-1c1-1,0-1-1-2l-1-4zm-54,1h1l1,1v2h-2v-1l1-1l-1,1h-1v-1zm-20,1h1v1l-1,1h-2v-1zm-21,7h2v1l-2,1h-3v-1zm-5,2h1l3,1v3l-2,1c-2,0-2,1-3,4l-2,2l-3,1q-1,0,2,1l1,2v1l-1,1h-1l1,1v3h2v1l-2,2l1-1h1l2,2v1h-2l-2-1l-1-1c0-4-1-4-2-5v1l-7,7h-1c0,2,1,1,2,1v3h-1c-5-1-5,0-6,1h-4v-2l1-1h-2l-1-1v-1h3l-2-2l-1-2v-13c1-1,0-1-1-2v-1l1-1h1c1,1,1,0,3-1c2,0,2-1,3-3h1v8c-1,3,0,3,1,4c0,2,1,2,2,3v4l-1,1h-2v-1l1-2h-3v-3h-2v-1c2,0,2-3,1-3v2h-2v2h-1l1,3v1l-1,1h2c1,1,1,0,2-1h1v1l-3,3l2-1h1l1,2v1l-2,1c5,0,5-2,6-3h1v-4l1-2l1-1h1v1l-1,2h-1v2l2-2c2,0,2-1,3-2h1c0-4-2-2-4-2v-1l1-5c3,0,2-2,2-7l1-2h3v1l-2,1l2-1h3z"/><path d="M170,156h1l1,1v4h-1l-1-4zm-25,1h1l4,1l4,2v1h4v1c-2,0-2,1-3,2h-1l1,1v2h-1l-1-2c0-3-4-3-6-4c0-2-1-1-5-1v-1l1-1zm18,1h3v2l-1,7l-1,1h-1zm-94,3h2v1h-2zm66,0h3l1,1v3h-1l-2-1l-1-1zm36,3h1v1l1-1h1v1l-1,1h-2zm-10,2h1v1c-1,2,1,2,3,3v1l1-1h1v11l1-3h1l-1-4v-2l1-1h1v-3l1-1h1v1l-1,3h-1l1,1v5l-1,1h-1v7l-1,1h-1v2h-1v-2l1-1h1c0-3-2-3-2-1h-1l-2-1v-1l-1,1h-1l-2-1v1h1v2h-1c0-2-1-2-2-3v2h-1l-1-4v-2c1-1,0-1-1-2v-2l3-3c2,0,2-2,3-4z"/><path d="M74,171h2v4h-2v2h-1l-1-3v-1h2zm-12,6h1l2,2v1h-1c-2-1-2,1-3,2h-1v-2l1-1h1zm2,4h2v1c-1,1,0,1,1,4v4h-5v-1l3-1h1c0-2-1-1-2-1v-2l1-1h-2v-1zm-9,3h2l2,1v2h3v1h-3l-2-1l-2-2zm-5,2h3l1,1v1h-1l-2-1l1,2v1h6v2h-7l-2-1l-1-1v-1h2l-2-1v-1zm-7,1h2v1h-2zm123,2h1v6c-2,0-1,1-1,2l-1,1h-1v2l-1,1h-1v4h-1c-2-1-2,0-3,2c-5,0-4,2-4,3l-2,1h-1v2h1v1c-2,0-2,1-3,2l-4,2c-2,0-2,1-3,3c-2,0-2,1-3,3l-1,1l-6,1h1l1,1v1h-1l-1-1v-1c-3,0-3,2-4,3h-2l-1-1v-2l-1,2h-1l-2-2v-1l1-1h1l1,2v-3c2,0,1-1,1-2h2v2l-1,1h2c0,2,1,1,2,1l-1-1v-1c1-1,0-1-2-3l-1-1c0-2-1-2-2-3v-3h1l1,1v1c-1,1,0,1,2,3v2h3v1l1-1h8l-1-1v-1l2-1h1v-2l3-1h2l-2-1v-2c3,0,3-2,4-3q1,0-2-1v-1c2,0,2-1,3-2l-2,1h-1v-1l1-1c2,0,2-1,3-2h-3v-2l-2,2h-5c-1-1-1,0-2,1h-2v2h2v1h-5h1l1,1v1h-1l-3-1l-1-1v-1l-1,1c-3,0-3,2-5,4h-1v2l-2,2l-2,1h-1v-3l1-1l2-1q1,0-2-1v-1h2v-2h3l1,1v-3c2,0,2-1,3-2h-1v-1h2l2,2v1h4v-2c3,0,3-1,4-2h5l1,1v-2h10l1,1l-1-1v-1h3v-2l2-1h-2v-2h2l2,2v1l-1,2h-3l1,1v1h3v-2c2,0,1-1,1-5l1-1h1z"/><path d="M43,191h1v2l-1,1h-1l1,1v1l-3,3h-1v2h-1v-2l1-2l1-1h1v-2l1-2zm3,0h1l2,2v1h-2v2l-1,1h-1v-2zm83,2h2v1h-2zm-79,1h5v2h-2l-3-1zm-2,1h1v2h-1zm6,8h1l1,1c0,2,1,2,2,3v1h2v1c-2,1-1,1,1,3v1h2v1l-2,2h-1c0-4-2-4-3-5v-3h-2l-1-4zm118,4h1v1l-2,2h-1v-1zm-124,1h2v1h-2zm16,8h2l1,1v1h8l1,2v4l-3,1h-3l-2-2v-1l1-1h5v2v-1h1l-1-2v-1h-8l-2-2z"/><path d="M57,217h1v2h-1zm-33,3h1v1l-3,3h-1v-1zm13,0h1v10h-1l-1-4v-1zm144,1h2v3h-2v-1l1-1l-1,1h-1v-1zm-119,3h1v2h-1zm119,1h2v2l-1,1h-1zm-105,4h1v2h-1zm-38,3h1v3h-1zm145,1h1v6h-1zm-65,2h1v1l-1,2h-1v-2zm-69,3h4v1l-1,1h-2l-1-1zm-9,2h1l1,2v2h-1l-1-2zm14,2h4v1h-2v2h-1l-1-1zm90,1h1v1c-1,1,0,1,2,3v1h-2v-1v9l-1,1h2v1l-1,1h-2v2l-1,1h-1v-5l1-4l2-2h-1v-2h-2l-1-1v-1z"/><path d="M51,244h1l1,1v1h-1l-1-1zm-5,1h1l1,1v1l1-1h1v2h-2l-2-2zm92,4h2v1c-2,0-1,2-1,3l-2,1h-1c0,4,1,4,2,6v2h-1l-1-1c0-2-1-2-2-3l-1-2v-2zm-123,6h2l2,1v1l-1,2l2-2h2c0,3,1,1,6,1v1h-2l1,3l1,7v3v-1h1v1l-1,5l-1,1h5l1,1v1h-1c-2-1-2,1-3,2h2l4,1l1,2v1h-5v-3l-1,2l-1,1h-7v-18l1-3h-3v-1l3-1l-3,1h-2l2,1v1l-4,2h2v1c-4,0-4,1-5,2c-2,0-2,5-1,5l1,2c0,3,3,3,5,4v2h2l1,1v1h-2l-2-1l-2-2q0-1-2,3h-1c0-2-1-2-3-4l-1-4v-3l1-2h-3v-1l2-1h2v-2c1-1,0-1-1-2v-2c3,0,3-3,4-6z"/><path d="M166,262h1v2h-1zm-28,1h1c0,2,1,2,2,3v2h-1l-1-1v-1h-2v-1zm3,0h2v1c-1,1,0,1,1,2v3h-1l-2-4zm-8,1h1l2,2l1,2v1h-1l-1-1v2h-1l-1-3zm52,0h1v1l-1,2l-2,2h-1v2l-1,1h-2v-1l1-2h2v-2zm-20,1h1l2,1v5c-1,3,2,3,5,6l1,3v2l-1,1l1-1h1v2l-2,2h-3l-2-1v-1v2h-5l-1-1v-1l1-1h2l2,1l-2-1l-1-2v-3l1-2l1-1h1l-1-1c0-4-2-4-2-2l-1,1h-1v4l-2,1h-1l1,2v1h2v1c-2,0-1,1-1,2h-2l-2-2l1,2v2h-3v-3l1-1h1l-2-2v-1l2-1h2v-2c2,0,2-3,3-5l1-1h1l-1-1v-1l1-2z"/><path d="M106,267h1v3l-1,1h-1v-1zm-99,1h2v1h-2v2h-1v-2zm123,0h1l3,3v3l1-1h1l1,2v2l-1,4h-1c0-2-1-1-4-1v-4h1l1,1l-1-2v-2l1-1h-2l-1-1zm-1,6h1v6l-1,3h-1l2,1v2h-4c0-2-1-2-2-3v-1l1-1c2,0,2-2,3-6zm-16,1h2v4l1-1h1v3l-1,2h-1l-1-1l1,2v2h-1v-2l-1,2h-1v-2l1-4h1l-1-1zm11,0h1v4l-1,2h-1c0,3,1,3,2,4v1h-5v-2l-1,2h-2v-4l1-2h2c0-2-1-1-2-1v-3h1l2,2v3l-2,2h1v1l1-1h1v-3l1-3z"/><path d="M92,276h1l1,3v2h2q0,3,1-2h1l1,1v1l-1,1l2-1h1v1l-1,1h-2v2l-1,1h-3v-2l-1,2h-2v-1l1-1h1l-1-4zm13,3h1v2c-1,3,0,3,2,4v1h-2l-1-1v-1h-2v-1h-1v2h2v1h-3v-3l1-2l1-1h1l1,1zm-20,3h1v4h-1zm65,0h1l1,1c0,2,1,1,2,1v1l-1,1h-1l-1-1l-1-2zm-62,1h1v3h-1zm22,0h1v3h-1z"/></g><g style="fill:rgb(43,48,55);fill-rule:evenodd;stroke:rgb(43,48,55);stroke-width:0.1" id="l3"><path d="M64,7h1v1l-1,1h-1v2h-1v3l-3,6h-1v-3l1-1h1v-3l2-4zm14,11h1l1,1v3h-1l-1-3zm-21,3h1v2h-1zm109,13h1v1l-5,5l-1,1h-1l1,1v1h-1c-1-1-1,0-4,3h-1v2l-4,4h-1v2l-3,3h-1v-1l2-2h1v-2l1-2l12-12h1v-2c2,0,2-1,3-2zm-97,8h2l4,4v1h2l1,2v1l1-2h2l1,3v1h-1l-1-1v-1l-1,2h1v3h2l1,3v2l1-2h1v2l-1,1h-2c0-2-1-2-2-3c0-2-1-1-2-1c0-7-1-7-1-5h-1l-1-1v3l-1,1h2c0,2,1,2,2,3v1l1-1h1l2,4v2h-3h1l1,2v1l-1,1h-1v-4l-1,1h-2v-7h-1v-1c-2,0-1,3-1,6h-1l-2-2c0-3-1-3-2-4l1,2l1,3v11l-1,1h-1l-2-1v6l2-2h1v-2l1-1h1v2h2l1,1v1c2,0,1-1,1-2h1l1,1l-1-2v-1h4l1,1l-1-2v-3l2-1h1v-5l1-1h1v3v-1h2v-2h1c1,1,1,0,3-2c2,0,1-1,1-6h1l2,2v1l-1,3h-1l2,1v6h-2l-1-1v-1c-2,2,0,2,2,3v1l-1,2l1-1h1l1,1v2c-4,0-4,1-5,2l-3,1h-2c-1-1-1,0-2,1h-2c-2-1-2,1-3,2h-4l1,1v2l-4,1h2v1h-2l-1-1v2l-1,1h-1l-1-1v2l-1,1h-1v2l-4,2h-3l-1-1l-1-8v2l-6,6h-1v2l-1,2h-1v-3l3-3h1v-2c2,0,2-1,3-2h-1l-2-1l-1-1c0-2-3-2-3-1l-1,2h-1l-1-1l-1-2l-1-3v-1c5,0,5-4,3-4l-1-1v2h-1v-2l1-2h1v2h2v1l1-2h1v2h3l1,2c0,3,2,2,3,2l1,1v2h2v-2c3,0,3-2,4-8h-1l-1-1c0-2-1-2-2-3v-5h1l1,2l-1-2v-1c1-3,0-3-1-5v-1l1-2c1-1,0-1-1-4v-2l1-2h1l1,1v1h3l1,1l-1-1l-1-2v-1h1l3,3l-1-2v-1l1-1l-1,1h-1v-1zm-6,13h-1v1h1zm2,15v1h1v-1zm0,9h-1l2,2l-1-1zm-3,2h-1v1h1zm-9-3h-4l3,1l2,2v2l3-1h1v-3l-1,1h-3l-1-1zm7,12h1v1h2v-1l1-1h2v-3h-1l-2-1v-1l-1,1h-1v4zm24-13v-1h-1v1zm0-5v-2h-1v2zm8-9l1,1v1h1v-3l-1,1zm-17-13v-2h-1l-4-4l1,1v2h1zm-16,33v1h1v-1zm8-1v-1h-1v1zm7-29h-1v1h1z"/><path d="M91,47h1v2h-1zm1,4h1v2h-1zm-42,5h1l1,6v1l-1,3h-3v-1l1-2h1zm124,1h1v1l-1,1h-1v2h-2l2,1v5l-1,1h-1v3l-1,2h-1c0,3,2,3,4,5v2l-4,4h-1v-2h2c0-2-1-1-3-1v2c-2,0-1,1-1,3l-1,1h-1c0-4-2-4-3-5v-1h-2l-1-1v-1l1-1h1v-3l-3,3h-1v-1l1-1h1v-2h-2v-1l2-1h1l-1-2v-2l2-2c2,0,1-2,1-3l1-1h-2v-1l1-1l2-1h1v3l-1,2h2v-2l1-1h2l1,1v-2l1-1zm-15,12v1h1v-1zm0,4h-1v1h1zm12,6v-2l-2,2zm-11-5v1h1v-1z"/><path d="M141,63h2v1l-1,2h-1l1,1v6l1-1h1c0,2,3,1,4,1v2l-1,1h2l1,1v-1h1v-2h1v-2h-2v-3l1-2l1-1h1l1,1v1l-1,2h-1l1,2l1,3v2h-1c0-2-1-1-2-1l1,1v2l-3,3l2-1h1v1l-2,2h2v2l-1,1h4v1c-1,3,1,2,2,2c1,1,1,0,3-2h3v1l-1,3h-1l-1-1l1,1v1l-1,2l-1,1c2,0,2-1,3-3l3-1h1v2l-1,1h-1v2l2-2h6l2,1v1l2-2h1v1l-1,1h-1l1,2v1l-1,1l-2,1h-1l-1-1v2h2v3l-1,1h2l1,1c0,3,2,3,2,1l1-2h1v3l-2,2h-1l1,1v2l-1,2l-1,1h-1l1,3v1l-1,1h-1c0,3,2,1,3,1v2l-2,1h-1l-1-1v2l-1,6h-1l-1-1v2h-1v-2l1-4h1l-1-6v-5l1-1l-1,1h-1l-1-2c0-4-1-3-4-3v-1c2-2,1-2-2-3v-2h1l2,1l1,1v-2l2-2h1h-2v-1l2-2h-1v-2h-3l-1-1v-2v1h-2v2c-4,0-4,2-2,2l1,2v2h-2l-1-1c0-3-1-3-3-5v-1h-2v-2h-2l-1-1l-1-2c0-2-1-2-3-4c0-3-2-3-4-4v-2h-2l-1-1v-1l1-1h2h-3v-1l1-1l2-1l4-1h1l-2-1l-1-1v-1h-2v-2h-3v-3zm5,20l2-2l-1,1l-2,1zm28,17v-2h-1l-1-1v1l-1,1h2zm-23-22v-1h-1v1zm-7,4v-1h-2v1zm4-4h1v-1h-1zm-6,2h2l2,1l-1-1v-1h-3zm4-1h1v-1h-2v1z"/><path d="M139,76h2v1l-2,1h-1v-1zm-46,10h2l1,1v1h2l1,1l1,2v1h3v2h-1l-1-1c0,2,1,2,2,3c0,5,1,5,2,8v4l-1,1h-1v3h-1l-1-1v3l-2,1h-2v3h-1l-1-1v2l-1,1h-1v2c-1,1,0,1,1,2v1c-3,0-3,1-4,4l-2,1h-2v-4v5c-3,0-3,2-1,2v1l-1,2c-2,0-2,1-7,6h-2v-2l2-1h1l-1-1v-1l2-2h1v-3l1-2l-1,1h-2v-1l1-2l-3,1l-5,1c-4,0-4,1-5,2h1l1,2v6l-1,1h1l3,1l1,1v1l-13,1h-2l-1-1v-1l1-1h-3v-1c2,0,2-3,1-2h-1v-5l1-1h1v-2l3-1h1l1,1v3h-4l4,1c0,3,1,2,5,2l-1-1l-1-4v-1c1-1,0-1-1-2l-1-4v-1l1-1h3v2h4l1,1v1c4,0,4-1,5-2l4-2c2,0,1-1,1-2l-3,1h-1l-1-1v-1h-3l-1-1v-2h1l1,1l-1-1v-1l1-1h2v1h-2l2,1c0,3,3,3,3-4c1-2,0-2-1-3v-1c-7,0-7,1-10,4c-2,0-1,1-1,2c-1,2,0,2,1,3v2h2l1,1v1h-2l-3-3v-2h-2v2h-3v-2l1-2l1-1c2,0,2-1,3-2h1v-2l2-2h1v-2c3,0,3-1,5-2c2,0,2-1,3-2c2,0,2-1,4-3l2-1h5l3,1v3l1-2l1-1h1v-3h4v3c2,0,1-3,1-7h-2v-3l-1,1h-1l-2-2l1,1v2h-1c0-2-1-1-3-1l-2-1v-1c3,0,3-1,4-2zm-1,3l2-2zm-17,18l3,1l2,1l1,2l1,7v2l-1,1h2l1,1v-4l1-2h-2l-1-3v-4h-1zm-7,4h1v-1h-1zm7,7h-1v1h1zm4,7l-1,1l-2,1h2v-1zm3,9h1v-1h-1zm-4-28h3l2,2v4h1l2,4v6l-1,1h5l1,1v-3l1-2h1v-3l1-1h1l-1-2v-1h1l1,1v-2h1l1,1v-2l1-1h-3v2h-1l-2-2v-3l-1,1h-1v-2h-1l-2-2v-2h-3l-1-1v1l-1,2h-4v2zm16,2v1h1v-1z"/><path d="M100,88h2l1,1v1h-1l-2-1zm-15,1h2v1h-2zm-14,8h2v1h-2zm-3,1h2v1h-2zm42,2h1l1,1v5l1-5h1v3l1-3h1v3l-1,2h-2v2l-2,1h-1l-1-1v-7zm14,1h2l1,2v1l-1,1l2-1h2c0,2,1,1,3,1v-1l1-1l2-1h1l2,2l2,4v1l2-1h1l3,1l-4-4v-1h2l3,1l2,1v1c-2,0-1,1-1,4h-6h1c0,2,3,2,5,3l3,3c0,4,1,4,3,5c0,3,1,3,2,5c0,2,1,2,1-2h-1l-1-2v-1c1-2-1-2-2-3v-1c1-1,0-1-1-3v-1h-2v-1h2l-2-2v-1h1l1,1v1l1-1h1l2,1v1h-4l2,1v1l1-1h1v1l-1,1h2v1l1-1h5v1l-1,1h-1l1,1v1h-1l-1-1v-1l1-1l-2,1h-2v1h2l1,1v1l2-1h1l1,1v4l-1,1h2v1c-2,0-2,2-1,2l1,1l1,2v2l-1,1h-1v3l-2,1h-1l-2-1l-2-4v-2c-4,0-4,4-6,8h-1v3l-1,1h-1v2l-1,1h4l-1-1v-1l3-3h1v-2h3l1,2v1l-1,2l1-1h1v2h-2l2,2v4h-2v2h-3l-1-1l2,2l1,2v1l-1,1h2v-3l1-1h1v-2h2c0,4,4,4,4,2l1-1h1v-2h3l1,2v1l-2,2h-2h3l1,4v6l-1,1h-1l1,3v1c-3,0-2,2-2,6l-1,3h-1l-1-1v-7l1-3l-1,1h-1l-4-2l1,1v1h-1l-1-1v-1l1-2l1-1l-1,1h-1v2l-1,2l-2,1h-1v-2h2v-2h1l-1-2v-3l-2,4h-1q-1-2,0,0v2h-1l-1-1c0-3-1-3-2-4v-1c-2,0-2,3-3,5h-1l1,1v1l-1,4l-1,1h-4l2,1v1h-3l1,1v1h-2l-1-1v-1h2v-2h1l-1-1v-2c2,0,1-1,1-2l3-1h-5l-1-1v2h-4c0-2-1-2-3-4c0-2-1-2-2-3l-1-4c0-3-1-3-2-4c0-2-1-2-2-3v-11l-1,1h-1l-2-1v-1h2l-2-2v-1h2l1,1v-1c1-2-3-2-5-3l-2-2v-1h1l1,1v-2h1l-2-2v-1h6l1,1v-3l-1,1h-1v-1l1-2h-1c0-2-1-2-2-3l-1-2c0-3-1-3-3-7v-1l1-2h1l-1-1v-1h2v-2l1-1h1l1,2v-3zm-2,10v2l2-4l-1,2zm0,6h1v-1h-1zm23,56v1h1v-1zm-6-8v-1h-1v1zm24,3l1-1h1v-7l1-2l-3,1h-1v2l1-2h1v4h-1l-1-1v2h2v1zm-2-11v-1h-2v1zm-3,4h-2v-2l-1,2h-1l-4-2v-1h-4l1,1v2h2l4,1v3l3-3h2zm-4-5h-1l-2-2l-1-2v-1h-3l-1-2v-3l1-1h1l-1-1v-1l1-1h2v-4h-2l-1-1v2h-1l-1-1v-2l-2,1h-1l-1-1v-1h-5v2h-1l-2-1v-4l2-1h-1l-1-1v-1h-3l2,4v3l-1,1h1v2h1l1,1v3h-1l-1-1v2h1l2,1v1l-1,2h1l2,2v2h2l1,1v1h2v1h4v1l4-1h1v3l1-1h2zm2-14h-1v1h1zm-3,3h-1v1h1zm-2-12v-1h2v-4l-2,2l-3,1h-1v-1l1-1h1v-2h1v2l1-1h1v-4h-1l-1-2v-2h-1l-1-1v-1h-2v-2l-1,1h-3v-1l3-1h-7v2l-1,1h-1v3h2v-2l2-2h1v4h-2v2h2l1,1v1l-1,1h-1v2h2v-2h3v2h-2v1l-1,1h-2l-1-1v-1h-2v-3l2-2l-2,1h-1v-1l1-1h-3l1,1v1h-2v2l2-1h1v2l-1,3h2l1,2v1l1-1h1l3,1v1h7v-1zm11,0v-2h-1v2zm1-5l-1-1v-2l-1,3l-1,1h-2l1,1v1h2v-1l1-2zm0-5h-1l-1-1v1l-1,1h-2h4l2,1l-1-1zm-7,8l-1-3v-2h-2l1,2v2h1zm-9-25v1h1v-1zm-23-2h1v-2h-1zm22,53h-1v1h1zm-6,0l-1,1h-1l-2-2v-2h-2l1,1v1h-2v4h1l1,1l1,2v1h2v-3h2l-1-1v-1zm-8-16h-1v1h1zm1-14h-1v-3l1-1h-2l-1-1v-1h1l2,1v-1l3-6l2-2h4v-3h-1l-2-1l-1-2v-2h-4v1l-1,1h-3l1,1v1l-2,1h-1l-2-2v2l-1,1h-1v3l-1,2h1l1,5v4h1l2,1l1,1v2l2-2zm11,31l-1,1h-1h2l2,1zm-10-30h-1v1h1z"/><path d="M118,102h1v1l-1,1h-1v-1zm34,0h1l1,1v1h-1l-1-1zm-86,1h1v1l-1,1h-1v2l-4,2h-5v-1l2-1c4,0,4-1,5-3zm82,0h2v1h-2zm-32,3h1v2l-1,1h-1v2h-1v-3zm-64,3h1v8l-1,1h-1v4h-1l-1-3v-4l1-4zm107,0h1v2h-1zm-86,3h3v1l-3,1h-1v-1zm43,1h1l1,1v1h-1l-1-1zm-60,2h1v5h-3v-2l1-1h1zm58,1h1v2h-2v-1zm15,2h2v1h-2zm13,2h1l1,1v1h3v1h-3l-2-2zm-92,5h1v2h-1zm-3,2h1v6l-1,6l-1,2l-1,1h-1v-6c2,0,1-1,1-6l1-1h1zm-2,11v1h1v-1z"/><path d="M116,134h2l2,2v1h-1l-4-1v-1zm51,2h1v3l-1,3h-1l-1-2v-1c2,0,1-1,1-2zm-49,2h2v1h-2zm37,0h2v1h-2zm5,1h1v2h-2v-1zm-111,5h2v2l-2,2h4v2h-2l-2-1v-1l-1,1h-1l-2-2v-1h1l3,1l-1-1v-1zm16,1h1l1,1v1h-1l-1-1zm4,2h1v1l-1,1c-1,0-1,1,2,1v-1l2-1h2v1l-2,2l-3,1h-2v2l-3,1h-2v-1l2-1h-3v9h-3v3h-1v-3l1-1c2,0,1-1,1-6l1-2h1l-1-2v-1h-2v1l-2,1h-1v-1l1-1l2-1h6l1,1v-1c2,0,2-1,3-2z"/><path d="M100,150h1v2h-2v-1zm-5,1h2v2h-1l-1-1zm10,0h6v2l-3,1h-2l-1-1zm-54,1h1v1c-1,8,0,8,1,10v2l-1,3h4l1,4v2h-1l-1-2v4l-1,1h-1v2l4-4h2v5h-1l-2-1l-1-1v2h2v1c2,0,2-1,4-3h1l2,1v1l1-1h1l-1-1v-1h1l1,1v1l-2,2h-3c0-2-1-1-2-1c0,2,1,1,2,1l2,1v1l-1,1h2v5h-4v-1q1,0-2-1v-2h-2l-1-1v-1h1l1,1l-1-1v-1l-1,1h-1v-3l-1,1h-1c0-2-2-1-3-1l-2-1v-1c2,0,1-1,1-3l-1,1h-2v-1l1-1h-1l-2-1v-5l1-2h2v-2h1v3l-2,1h2v3h3v2l-1,1h2v-1h1l-1-1v-2c1-1,0-1-1-2c0-2-1-2-2-3v-3l1-9zm-3,20v1l-1,1l2-2z"/><path d="M55,153h1v1l-1,2h-2l-1-1v-1h1c1,1,1,0,2-1zm46,9h5l1,1v1h2v1h4l1,1v1h2v2h2l1,1v1l-1,1h-1v-1h1l-2-1l-2-2v-1h-8l-1-1v-1l-3,1h-5l-6-1v1h-3v3h-1v-3l1-1l2-1l3-1h7l1,1zm20,0h1v3h-1zm-60,4h1l1,1v1h-3v-1zm-1,3h2v1c-1,1,0,1,1,2v2h-1l-1-2v-1l-1,1h-1v-1zm26,2h2c0,2,1,2,3,3v1l6-1h1v2h-8l-1-1c0-1-2-1-2,6c-2,0-2,2-1,2l1,1v1l-1,3l-1,2h-4l-1-1v-3l3-3h-4v-1l2-1h1l-1-1v-4l1-1h1l1,1v-1z"/><path d="M137,171h3v1l-1,1h-2zm-58,2h1v2h-1zm39,0h1v1l-1,1h2v3l-1,1h1l2,1v6c-2,0-1,2-1,3h-2l-2-1v-2h2l-2-1v-2h1l1,1l-1-2c0-4-3-3-9-3l-3-3v-1h1l4,1l4,2l-1-1v-1h1l2,1l-1-1v-1zm0,3v-1h-1v1zm36,0h1l1,1v7l1-2h4l1,1v-4h1l1,1v2l-1,1h2l1,1v-2h2v3l-1,1h-1l1,2v1l-1,2l-1,1h-1l1,1v2l-2,4c-3,0-2,1-2,4h-2v-6h-3l1,1v1l-1,1h-1v-1l1-1l-1,1h-4l-4-1v-1l2-1h-1c0-2-2-1-3-1v-1l1-1h1v-2l2-1h-1l-1-2c0-2-1-2-3-4v-1h-2v-1h2l2,1l3,3v-4h2l1,1l-1-1v-1l1-1h1v-2zm8,21v-2l1-1h-1l-1-1v-1h-2v2h2v1h-2v2zm-2-14h-1v2h1zm-6-2h1v-1h-2v1z"/><path d="M138,179h1v4l-1,1h-1v2h-1l-1-1v-2l1-2h2zm21,0h2v1h-2zm-92,1h1v1l-1,2h-2v-1zm-21,2h2v1h-2zm-5,11h1l1,1v1h-1l-1-1zm6,3h1v2l-1,3h-1v-4zm-9,2h1v1l1-1h1v1l-1,1h-1l-1-1zm7,6h1v2h-1zm114,0h2v2l-1,1h1c0,3,1,3,2,4v1h-1l-3-1v4h-1c0-5-2-5-2-4l-4,4c-2,0-2,1-3,2c-2,0-2,1-3,2h-1v2l-2,1c-2,0-2,1-5,4h-1v-1l1-1h1v-2h-2v-1h2l1,1v-1h2v-2l1-1l4-2c2,0,2-1,3-2c2,0,1-1,1-3l1-1h2l-1-1l-1-2v-1h1c5,1,5-1,6-2z"/><path d="M37,211h1l1,1v2h-1l-1-2zm21,8h1l4,4v1h-1l-4-4zm6,0h10l1,1v2l-1,1h-1v-1l1-1l-1,1h-6v-2h-3zm9,5h3v1l-2,1h-1zm58,0h1l4,1c0,3,1,3,2,4v1h-2l-2-1c0-2-1-2-2-3c0,3,1,3,3,4l1,1v1l-1,1h-1v-1l1-1h-2v2l-1,1h-2v-1c1-2,0-2-1-3v4h-1l-1-2v-1l-1,2h-1l-1-4v4h-1v-3l-3,3h-1v-1l2-6h1l1,1v1l1-1h1l1,1v1h2v-4h4h-1zm0,6h1v-1h-1zm1,1h1v-1h-1zm-57-5h1v2h-1z"/><path d="M37,230h1v2h-1zm39,1h1l1,2v3h-1c0-2-1-2-2-3v-1zm2,6h1l1,1l1,2c0,3,1,3,2,4l1,2v2c2,0,1-1,1-3h2l2,1v1q-2,1,5,1v1h-5v2h-8v-1l4-1h-1l-1-1c0-2-1-2-2-3l-1-2c0-3-1-3-2-5zm-22,1h1l1,1v1h-1l-1-1zm3,0h6v1h-6zm61,0h2v1h-2v2h-1l-1-1v-1zm-52,1h3l2,1v1h-2v4h-1v-4l1-1h-3v2h-1v-2zm81,0h1v1l-3,3h-1v3h-1l-1-1v-1zm-26,1h1v2l-1,1h-3v-1h3z"/><path d="M115,241h1v3l-1,1h-2v-1h2zm-48,3h1v2l-1,1h-3v-1h3zm7,0h1c0,3,2,2,3,2v1l-1,1h-2l-2-1v-1zm35,2h1l2,1v1h-2l-1-1zm-12,1h3v1h-3zm48,5h1c0,3,1,3,2,5v1l-1,1h-1l1,1v2c-4,0-3,1-2,4v1h-1l-2-2l2,4v-1h1v3h-1l-2-2v4h-1l-1-1c0-4-1-4-3-5l1,1l1,2v6h-1c0-2-1-1-2-1v-1l1-1l-2,1h-1c0-3-1-3-4-6v6l-1,1l2-1h1l1,1v2l-1,1h-1v2h3v6h-4v-2h-2v-1c2,0,1-2,1-8l-1,4l-1,2l-2,1h-1l1,1v2h-1l-1-1v-3l1-2h1l1,1l-1-2v-11h2v-2h1l2,1l1,1l-1-1v-1c1-1,0-1-1-2v-2l1-1l-1,1h-1l-2-1v1c-2,0-2,1-3,2c-2,0-2,1-3,2h-2v-1l1-1l2-1c2,0,2-1,3-2c2,0,2-1,3-2c2,0,2-1,3-2l2-1h1v1l-1,1c-2,0-2,3-1,3l2,2v5l1-1h1l-1-1v-3l1-1h-2v-4h1l2,2l1,4v2l-1,1h3c2,2,2-1,3-2h1l-1-1v-2l1-2l2-1h1l-2-1v-4zm-1,8v1h1v-1zm-8,4h-1v1h1zm-5,13h1v-1h-1zm-2-9h1v-1h-1zm5,2l2-4l-1,1h-1zm3-1v-1h-1v1z"/><path d="M18,257h2v1l-1,1h-1zm3,1h2v2h-1l-1-1zm5,1h2c0,2,1,2,2,3c0,3,2,2,4,2v1h-2l3,1v2h2c0,2,1,2,4,5v1l-2,1h3v1l-4,1h1l3,1v2h-4l1,1v1c-2,0-1,1-1,3h2v1h-6v-1l1-2h-4l1,1v1l-1,1h-2v-1l1-2h1l-2-1v-1l1-2l2-1h-5v-1l1-5l1-1l-1,1h-1v-2c1-1,0-1-1-8zm6,21h1v-1h-1zm-14-20h2v1h-2zm2,3h3v1h-3l3,1v3l-1,18h-1l-1-1v-1h-2c0-2-2-2-5-3c0-3-1-3-2-5v-5c2,0,2-1,3-2h4l-2-1v-1l2-1h2l-2-1v-1z"/><path d="M165,264h2v1l-2,1h-1v-1zm-51,1h2v6h-1l-1-5zm-4,1h3v1h-3l3,3v2l-1,3h-1v4l-1,2h2v-2h2v1l-1,4l1-2h1l1,1v-2h1v-3l-1,1h-1v-4h-2v-2l1-1h1c0,3,1,3,2,4l-1-1v-1h1q0,1,2-3h1l-1-3v-1h1l1,1v5l-1,1h1l3,1v-1h1v1l-1,2h-1l-1-1v2h-2l-2-2v3l1-1h1v2h-2v2h-1l1,2v1l-1,1h-2v-2l-1,2h-1v-2l-1,2h-1l-1-3v-1v4h-5v-1l1-1l-1,1h-3v-2l-1,3h-4v-1l1-2c2,0,2-1,3-2l-1,1h-2c0-3-1-1-4-1v-1l1-2l-1,1h-1l-1-3v3h-1v-6h1c0,2,1,1,2,1v3l1-3l1-1h1v4l1-3h1c0,5,1,5,2,6v-2h1c0,2,1,2,2,3l-1-1v-1h2v-2c2,0,2-5,3-8h1v5c2,0,1-1,1-4l1-1h-1l-3-1v-1zm-7,18h2v-3l1-2l-1,2l-1,1h-1l-1-1l1,2z"/><path d="M101,268h1v2h-2v-1zm2,0h3l1,2v1h-1l-1-1l1,1v5h-1l-1-3v-3l1-1h-2zm60,1h1v1l-1,1h-1v2h-1v3h-2v2l-2,1h-2l3,3v1h-1l-1-1v1l-1,2h-1c0-3-1-3-2-4v-1h2h-1l-1-1v-2h6l-1-1v-2h2v-2c2,0,2-1,4-3zm-79,2h7v1l-1,5l-1,1h-1v-1c1-3-1-3-2-5l1,2v3c-1,2,1,2,3,3v1l1-1h2v2c-2,0-1,2-1,3l-2,1h-1l-1-3v3h-1l-1-1c0-3-1-3-3-4l1,1v2l-1,1l1-1h1v2h-6v-1h2v-2h1h-3v-1l2-4h2l2,1l-1-5v2h-2v-1zm-2,9v1h1v-1z"/><path d="M167,271h1l1,1l1,3v2h2v5h-2v-1l1-1h-1v-2h-2l-1-1v-1h2l-2-2v1h-1v-1zm-36,1h2v1h-2zm-18,4h1v2h-1zm28,1h1c0,3,1,2,3,1h1l1,1l1,2c0,2,1,1,2,1v2v-1l1-1h1l1,1v2h-1q-1-2,0,0v1h-14v-2h-2v2h-1v-5h2v-2h1l1,2v3v-1l1-2h1zm-133,1h1c0,4,1,4,3,6v2h-3l-1-1v-4h-2v-1h2zm17,1h1l1,1v1l-1,1h-1zm97,0h1v1l-1,3l-1,1h-1v2h-1v-4z"/></g><g style="fill:rgb(7,50,129);fill-rule:evenodd;stroke:rgb(7,50,129);stroke-width:0.1" id="l4"><path d="M41,186h1l2,2v2c-2,0-2,3-3,6l-2,2h-1v6l1-2l1-1h1v3l-1,3c-2,0-1,1-1,5l-1,1h-1v6h-1l1,5v1h-2v-23l1-7l1-3l2-4zm-4,26h1v-1h-1zm8-15h1v7h-2v-1zm3,0h1v4l-1,2h2v1h-3v-6zm114,5h1c0,4,1,4,2,5c0,3,1,3,3,4l1,1v1h2l2,2v1h2l1,1c0,2,1,2,3,4l2,4v1h-1l-1-1v2h1v2h2l1,2l1,12v1h-3l-1-2c0-2-1-2-3-3l-4-8l-1-4c0-3-1-3-4-9v-1c-2,0-1,3-1,7h1c0,2,1,2,2,3l1,2c0,4,1,4,3,10c0,3,1,3,2,5c0,2,1,2,3,4l1,3v1c-2,0-2,2-3,4l1-1l2-1h1l1,1v3h3v2l-1,1h-1v3h-2l-2-1l-1-1v-1h-2l-1-1l-1-3v-2h-4l-2-2v-1h-2l-1-1v3h1l1,3l1,5v4h-1c0-4-1-4-2-7l-1-4c0-5-1-5-2-9c0-8-1-8-2-14c0-4-2-4-2-2l-3,3h-1v2l-8,8c-2,0-2,1-14,13c-2,0-2,1-3,2c-2,0-2,1-3,2c-2,0-2,1-3,2l-2,1c-2,0-2,1-3,2l-8,2c-4,0-4,1-7,2h-1l-1-1v1h-7v2h-1c-2-1-2,0-11,1h-19l-9-1l-2-1v-1h-3l-3-1v-1h-4l-1-1v-1h-2l-4-2c0-1-2-1-5-2l-2-1v-2h4l4,1v1l-1,1h1l4,2l2,2v1h6l3,1v-1c3,0,3-1,5-3h-2v-1h4l5,1v-1q1,0-7-2v-1h-5c0-2-1-2-3-3c0-2-1-2-2-3c0-2-1-2-2-3l2,4c0,2,1,2,2,3v1h-2l-1-1c0-3-1-3-2-4c0-3-1-3-3-7l-2-6l-2-8v-6h1v6h1c0,3,1,3,2,4v6h1v2h2l1,2v1v-2h2l2,2v1h2v-2l1-1h8c2,1,2,0,3-3h2c0,5,3,4,5,4l6,1l1,1v1l-1,1h2v1c25,0,25-1,30-2c5,0,5-1,8-2c4,0,4-1,7-2c3,0,3-1,7-3h3v-1h1v-1l-3,1c-3,0-3,1-5,2h-1v-4h5h-12v-1l1-2l1-1h9v-1c4,0,4-1,10-3c3,0,3-1,5-2c2,0,2-1,3-2l2-1c2,0,2-1,3-2l2-1h1l2,4v-2c3,0,1-6,1-7l1-1h1v-6h2l4,2v-1h-1l-2-2l-1-3v-2zm6,14h1v1h1v-1z"/><path d="M44,206h2v6l1-1h1v-2h2l1,1v1l-2,1h1l2,1l1,1v2h-2c-2-1-2,0-3,3c-1,1,0,1,1,3c0,2,1,2,5,6v1h2v1l1-1c2,0,2-1,4-3l2-1h1l-6-6l-1-2v-1c1-3,0-3-1-5v-2h1l1,2v1h2v6l-1,1h1l7,1c0,2,1,2,3,4v1h3l2,1l1,2v3h-2l-1-1v-1h-2v-1c-4,0-4,1-2,1l1,1v1h2l1,1v1h2l2,1v2h2v1l-1,2h-2c0-2-2-1-3-1l-4-1l-2-1v-1h-3q0-1-1,3l-4,1h-9l-8-1v-1h2v-4h1l-2-2v-1l2-1h-2l-1-1v-1l1-2h-2v-1c2,0,2-2,1-2c0-3-1-3-2-4v-5h2c0,2,1,2,5,6l-2-4l-1-8z"/><path d="M51,206h1v2h-1zm117,0h5v1l-3,3h-1l-2-2v-1zm-146,51h5v1h-5zm146,10h1l1,4c0,3,1,3,3,5v1h-1l-3-3l-1-2zm11,3h1v1l-1,1h-1v-1z"/></g><g style="fill:rgb(99,111,120);fill-rule:evenodd;stroke:rgb(99,111,120);stroke-width:0.1" id="l5"><path d="M64,5h1v1l-1,1h-1v-1zm10,4h1l2,2v1h-1l-2-2zm6,10h1v2h-1zm97,3h2v1h-2zm-12,11h1v1l-4,4h-1v-2c2,0,2-1,4-3zm-75,7h1v2h-1zm67,1h2v1h-2zm-3,4h1v1l-1,1h-1v-1zm-62,1h1l1,3v2h-1l-1-2zm-46,18h1v4h-1zm92,2h1v2h-1zm-92,3h1v2l-1,2h-1v-2zm90,1h1v6l-1,1c-2,0-2,1-3,2h-2v-2c3,0,3-1,4-2h1zm-38,1h1l1,1v1h-1l-1-1zm3,2h3l2,2v1l1-1h1l2,2v1h3l1,1v1l1-1h3v1l-1,1c4,0,4-1,6-2h-1v-1l7-1h1v3h3l1,1c0,2,2,2,4,3l1,1v2h2v2h-1l-2-1c0-2-2-1-3-1c-2-1-2,0-3,1h-2l3,1v-1h1v1l-1,1h-1v2l-2,2h-1v-1c1-4-1-4-1-3l-1,1l-4,1h-1l-1-2v2h1v1h-3v-1l1-1l-2,1h-1v1h1v3h-1c0-3-2-1-3-1l-1-1c0-3-1-2-4-2v7h-1l-1-1l1,3v6h-3l-1-5v-1l1-1c1,0,1-3,3-11l-1,1h-1v-2h-2v-1h2v-2h1c0,3,1,3,2,4v-1h1l-1-3v-1c-4,0-4,1-5,2h-1l-1-4v-1h1l1,1v-1l1-3l-2,2h-2v2h-1c0-2-1-1-3-1l-1-1l2,2v2l-2,1h-6l-1-2v-1c-2,0-1,1-1,2l-4,1h-1v-1l1-3l2-2l4-2c3,0,3-1,5-2h6zm-11,9h2v-2h-3l1,1zm4,1h1l1,1v-3h-1l-2-1l1,2zm23,8l-1-1v-1l-1,3l-1,1h2v-1zm5-3v-3l-1,2h-1v3l1-2zm2,0l2-1h1l2,1l-1-1v-2h1v2h3v-2h-3l-1-1v-1l-1,1l-3,1h-1l1,1zm-15-5v-2h-1v2zm7,5h1v2l1-3h2v-2l-2,1l-3,1h1zm-9-5l-2-2z"/><path d="M44,82h1l2,2v3h-1l-2-4zm55,1h3v3h-3zm5,7h1v4h-1zm32,0h1v2l-1,1h-1v-1zm-50,2h1l2,1v1l1-2h5v2l-2,1h-2c-1-1-1,0-2,1h-1l-2-2zm-39,2h1v2h-1zm16,0h1v1l-1,1h-3v-1zm40,1h3v1c-2,0-1,1-1,3h-2zm28,0h2v2l-1,1h-2l-1-1v-1h1l2,1l-1-1zm3,0h1v2h2v1l-1,1h-1v2l-3,1h-1v-1l1-2c3,0,2-2,2-4zm-84,1h1v3l-2,4h-1v-5h1l1,1zm7,1h1v2l-3,3h-1v-1l2-2h1z"/><path d="M60,97h1l1,1v1h-1l-1-1zm124,2h1v3h-1zm-136,5h1v7h-1zm6,1h2v1l-1,1h-2v-1zm-3,1h1v2l-1,2h-1v-3zm56,2h1v4h-1zm-3,1h1l1,1v3h-1l-1-2zm73,2h1v1h-1l1,1v1h-1l-1-1v-1zm-130,1h1l1,2v12h-1l-1-1zm56,0h1v2l-1,1h-1v2l-2,2h-1v-1l2-4zm-30,1h1v3h-3v-2zm5,0h1l1,2v1h-1l-2-1v-1zm29,0h1l1,1v2h-1q0-2-1,2h-1v-4zm69,2h1v3l-1,1h-1v-2z"/><path d="M65,117h1c0,3,1,3,2,4c0,1,2,1,7,2v1h-6l-2-1l-1-1l-1-2zm31,2h2l1,1v2h-1l-2-2zm-37,2h2l1,5v3h-1c0-2-1-2-2-3zm46,0h2l1,3v1h-2l2,4v-1h1v3l-1,1h3v2l-1,1h1l4,2l1,1v1h2v2h-1l-1-1v-1h-3l-2-1v-2h-2v-2h-2v-3l-1,1h-1v-2l1-1h-2v-7zm-10,1h2v2h3v1c-2,0-2,1-3,2h-1l-3-3v-1h1l1,1zm47,0h1c0,2,1,2,2,3v1l-1,1h-1l-1-3zm-90,1h1v2h-1zm95,0h1v3h-1z"/><path d="M45,126h2v2h-1l-1-1zm48,0h1v2h5v1l-2,1h-2l-1-1v2l-2,1c-4,0-4,1-6,5h-1v-3l1-1h1v-2h3l-1-1v-1h1l3,1zm82,0h1v1l-1,1h-1v-1zm-65,2h1v2h-1zm-66,1h1v2h-2v-1zm7,0h1v2l-1,1h-1v2l-2,4h-1v-2l1-3l1-1h1v-2zm95,2h2l1,1v1h-2l-1-1zm-49,1h4l1,1v2h-4l1,1v1c-1,2,1,2,2,3c0,3,2,1,3,1v2h3v-3h2l1,1v1l3-1h2v1h-1h3l2,2v-3h2c0,2,1,2,2,3l1,2v5h-1v-5l-1,1c-3,0-3,1-4,2h-1l-3-1l-1-1v3h1c0,2,2,2,4,3v1l2-2h3v1l-2,1h2v1l-1,1h1c0,2,1,1,2,1v3h-2l-3-3v-1h-2l-2-2v-1h-2l-3-3l-1-2c0-4-2-4-2-2h-1l-1-1v2h-2v-2q2-1-1,0h-1l-2-2l2,2v1h-1l-1-1v-1c-2,0-1,1-1,2l-1,1h2l1,1v1h-3l-1-1l1,1v1l-2,1h-1v-2l-1,2h-1l-5-1v-1c4,0,4-3,2-2h-2l-1-1v-1l4-2h2v-3c2,0,2-1,3-2h1l-2-1v-1l-1,1h-1v-1l1-1l-2,2h-1v-3l2-1h2v1l-1,1c4,0,4-1,2-1v-1zm-5,13h1v2h2l1,1v-2l1-3l-2,2h-1v-1l1-1l-1,1zm29,11v-2h-2zm-5-11v-2l-1,1h-1l-1-1l1,1v1z"/><path d="M42,135h1v1l-1,1h-1v2h-1v-2zm9,0h1l1,2v1l-1,1h-1zm33,3h1v1l-1,2l-2,2h-1v-1l1-1l-1,1l-2,1h-1v-1l1-1c2,0,2-1,3-2zm6,0h3v1h-3zm-2,2h3l1,1v1h-2l-2-1zm-13,3h2v1l-1,1h-2v-1zm95,1h1v2h-1zm-91,1h1v1l-1,2h-2v-1zm-5,1h2v1h-2zm28,2h1l1,1v1h-2zm-28,1h2v1h-2zm12,1h1l1,1v2h-1q0-1-2,3h-1v3l-1,2l-1,1h-1l1,1v1l-1,3h-1l1,1v1h-2v4c-2,0-1,2-1,3h-3v3l-1,1h-1l1,1v1h-1l-4-1l-1-2c0-2-1-2-3-4v-1l2-1h2v1h-2l2,1l2,2v-1h1l-2-1v-3h2v-2h3l-2-1v-1c5,0,5-2,3-2v-1h2l1,1v-4c2,0,1-1,1-2c2,0,1-2,1-3l1-1h1v-3l2-1h1zm-16,30l1-1h1v-2h2v-2h2l-1-1v-1h2v-2h-3v2h-2l1,1v2l-1,1h-1v2z"/><path d="M73,151h2v1l-1,4h-1h3v1l-1,1h-1l1,1v1h-2v2l-2,1h-1v-1l1-1l-2,1h-1l-1-1v2h2l1,1v1h-1l-1-1v2h-1l-2-1v2h-1c0-2-3-1-4-1v-1l2-2c3,0,3-1,5-3h2c0-2-1-1-2-1v-1l1-1l2-1c2,0,1-1,1-2l1-1h-3v-1zm-29,2h1l1,1v4l-2,1h-3c0-2-1-2-2-3v-1l1-1h2v1h-2l4,2zm59,0h2l1,1v1h7l1,1v1h2l3,3c0,2,1,2,2,3v2l-2,2h-1l-2-1c0-2-3-2-5-3l-2-2v-1h-4v-1l-2,1h-3l-1-1v1l-1,2h-3c-3-1-3,0-4,1l-4,2h-2v-4h2l1,2v-1l1-1c2,0,2-1,5-4q4-1-3,0h-2v-1c2,0,2-1,3-2z"/><path d="M126,155h1l1,2v1h-1l-1-1zm47,2h1v3h-1zm-86,1h1v1l-1,1h-1v-1zm41,1h1v2h-1zm-88,1h2l1,1v1h-3zm83,1h2l1,2v2h-1l-2-1zm-48,1h2v1h-2zm-35,1h2l1,1v7l-1,1h-1l-1-1zm90,2h1l2,2v1l-1,2c-5,0-5,3-3,3v1l-1,1h1l2,1v1h2v-2h3v1h-2h3l1,1v1h-4v6l-1,1h-1v2l-1,1h-2v-3c2,0,1-1,1-3l1-1l-1,1h-4v-1l1-1h-2v-1l1-1h3l-3-1l-1-3v-8h1l1,1v1c4,0,4-2,3-2z"/><path d="M65,169h3l1,1v1l-1,1l-2,1h-2v-2zm67,3h2v2h-1l-1-1v2h-1v-2zm-91,1h1l1,2c0,2,1,1,2,1v3l-1,1h-1l2,1v1c-1,3,3,3,3,2l2-2h4l2,1v3l-2,1h-1l-2-1v-1c-2,0-1,1-1,2h-1l-2-1l1,1v2l-1,1h2l2,1v1h5v1l-1,1c-5,0-3,1-1,3v1l1-1h1v-3l1-1h2l2,2v1h-2l-2-1l2,1v1h3l2,2v2h-2l-1-1v-1l1-1c-4,0-4,2-2,2v1h-2l2,1v3h-1l-1-1v-2c-2,0-2,2-3,4h-1v-2l1-1l-1,1h-1c0-3-1-3-2-4v-2h-2l-1-3v-1c1-1,0-1-1-2v-1h-3v-3l1-1h-3v-7l1-1l-1,1h-1l-1-1v-3z"/><path d="M170,177h1v1l-1,3h-1v-3zm-104,6h1v2h-1zm-9,4h1v2h-1zm-5,1h4v1h-4zm-18,1h1v1l-2,4l-1,1h-1v-1l2-4zm50,2h2v1h-2zm-39,2h1v2h-1zm72,2h2v1h-2zm-32,3h1l1,2v1h-2zm32,0h1v1l-1,1h-1v-1zm47,0h6l1,1v1h-1l-6-1zm-123,1h1v2h-1zm39,0h1v3h-1zm83,1h1v1l-1,1h-1v-1zm9,0h1l1,1v1h-1l-1-1zm-32,1h3v2l-1,1h-1l-1-1zm5,0h6v1l-4,1h-3v-1zm-73,2h1v2h-1zm-28,1h1v2h-2v-1zm108,0h3v1h-3zm-15,1h2l1,2v1h-1l-2-1z"/><path d="M144,206h2v1l-1,1h2v2l-1,1h-2v-1h2h-3l-2-1v-1h3zm29,0h2v2h-2zm-135,1h2v11h-1l-1-3zm21,0h2l1,1v1h2v1l-1,1h-2v-3h-2zm-4,1h2v1h-2zm73,0h2l2,1v1l-1,1h-1v-2h-2zm-76,1h1l2,4v1l-1,1h-1v-3h-2v-2zm85,0h2l3,1l1,1v1l-2,1h-3l4,1v1h-4l-1-1v-1l1-1h1l-2-2zm-10,4h1v3h-1zm6,1h1l2,1v1h-2l-1-1zm-4,1h1l1,1v1h-1l-1-1zm-80,2h1v6h-1l-1-1v-4z"/><path d="M136,217h4v1h-4zm-77,1h2l2,1v1h-3l-1-1zm75,1h3v1h-3zm45,1h3v1h-3zm-139,1h1v4h-1zm-17,1h1v1l-5,5h-1v-1l1-1h1v-2c2,0,2-1,3-2zm156,0h1l1,1v2h-1l-1-2zm3,6h1v3h-1zm-166,2h1v1l-1,1h-1v-1zm23,4h1l2,2v2h-1l-2-2zm6,4h2v1h-2zm138,1h1l1,2v7h-1l-1-3zm-176,3h1v1l-2,2h-1v-1zm132,6h2l2,1l1,2v1h-2v5l-1,1h-1v-2c-2,0-1,1-1,2h-3v-4l1-1c2,0,1-1,1-3h1l2,1l1,1l-3-3z"/><path d="M7,250h2v1h-2zm3,1h1l1,1v2h-1l-1-2zm167,0h1l2,1l1,1v1l-1,1l-2,1h-1zm-163,4h1v2l-1,2h-1v3l-1,2h-1v-2l1-3zm123,4h1l1,1v1l1-2h1v4l-1,1h-1c0-3-1-3-2-4zm50,0h1v1l-1,1h-1v-1zm-2,3h2v2c-2,0-1,1-1,2h-3v-1l1-1h1zm-161,3h1v2h-1zm142,0h1v1l-1,1h-1v-1zm-2,5h1l1,1v5l-1,1h-1l-1-3v3h-1v-4c3,0,2-2,2-3zm-141,1h1v3h-1zm155,1h2v1l-3,3h-1v3l-1,1h-2v-4l1-1c2,0,2-1,4-3zm-155,3h1v3h-1z"/><path d="M160,277h1v4h-1l-1-1v-2zm3,4h2v2l-2,1h-2v-1zm-149,1h1l2,2v1h-4v-1zm111,2h1v2h-1z"/></g><g style="fill:rgb(111,84,79);fill-rule:evenodd;stroke:rgb(111,84,79);stroke-width:0.1" id="l6"><path d="M70,5h1l1,1v1h2v2h-1l-3-3zm-6,1h1v1l-2,2h-1v2h-1v-2zm12,7h2v2h-1l-1-1zm2,3h1l1,1v2h-1l-1-2zm3,6h1v2h-1zm98,0h2v1h-2zm3,0h2l2,2v2h-1c0-2-1-2-3-3zm-6,1h2v1c-2,0-2,1-3,2h-2v-1l1-1zm-94,2h1l1,1v2h-1l-1-1zm88,3h1v1l-4,4h-1v-1zm-86,1h1l1,1v2h-1l-1-2zm81,5h1v1l-1,1h-1v-1zm-3,3h1v1l-3,3h-2v-1l2-2zm-73,1h1l1,4v1h-1l-1-1zm68,4h1v1l-2,2h-1v-1zm-107,1h1v1l-1,5h-1v-5z"/><path d="M93,51h1v4h-1zm55,2h1v1l-2,2h-1v-1zm-99,1h1v9l-2,4h-1v-3l1-1h1zm46,4h1v2h-1zm48,2h1v1l-1,2h-1v-2zm-3,4h1v1l-1,2h-1v-2zm-2,4h1v1l-1,2h-1v-2zm-41,3h1l1,1v1h-1l-1-1zm-53,3h1v4h-1zm86,3h1v2h-1zm-86,2h1l1,3v1h-1l-1-1zm141,1h1v7h-1l-1-1v-5zm-129,1h2v1l-1,1h-3v-1zm-10,6h1v6h-1zm138,3h1v6h-1zm-135,11h1v2h-1zm134,1h1v1l-3,3h-1v2h-1v-2z"/><path d="M47,110h3v1l-1,3h-1l-1-2zm23,7h1c0,2,1,2,2,3v1h2v1h-3l-2-2zm-25,6h2v3h-1l-1-1zm128,0h4v3h-1c0-2-1-1-2-1l1,1v1h-1l-1-1l1,1v3l-1,3h-1l-1-1v-4l1-2h1zm-122,1h3v1l-1,1h-1l1,1v1l-1,1h-1zm96,3h1v3l-2,1h-2v-1zm-102,1h2v1l-1,1h-1zm4,2h1v2h-1zm-6,1h2v2l-1,3h-1v7h-1c0-4-1-4-2-6v-1h1v1l1-1h1zm4,4h1l1,1v1h-1l-1-1zm0,3h1v2h-1zm123,1h1v1l-1,2h-1v-2zm-117,4h1v2l-1,2h-1l-1-1v-1h2z"/><path d="M169,143h1v2h-1zm-126,1h1v4l-1,5l-1,1h-1v-4l1-5zm11,3h3v2l-3,1h-1v-1zm-5,4h2v1c-2,0-1,1-1,2l-1,2l-1,1h-2v-1l1-1h1v-3zm-5,1h2v2h-1l-1-1zm127,1h2l1,7v8l-2,1h-1v-1l1-2h1l-1-1l-1-8zm-131,2h2v1h-2zm0,7h2v1h-2zm84,8h1v2l-1,1h-1v-1zm-60,5h1v1l-1,2h-1v-2zm7,0h1l1,1v1h-1l-1-1zm55,2h3v1l-3,1h-2v-1zm-59,1h1l1,1v1h-1l-1-1zm11,1h1l1,1v1h-1l-1-1zm-5,1h3v1l-1,3h-1l-1-1v-1l1-1l-1,1h-4v-1z"/><path d="M124,180h1l1,1v1h-1l-1-1zm3,1h2v4h-2l-2-1v-1h2zm13,0h3v1h-2v2h-1l-1-1v-1zm-91,1h1v1l-2,2h-4v-1c4,0,4-1,5-2zm73,1h1l1,1v1h2v3h-1c0-2-1-2-3-4zm-71,1h1v1l-1,1l-2,1h-2v-1zm15,1h1v1l-1,2l1-1h1l1,3v1l-1,1h2c0,3,1,3,2,4v2h-1l-1-2v3h4v3l1-1h1v2h2l1,1v-1h1v4l-1,1h-1v2h-2l2,1v1l-1,2h-1v6h-1v-2h-8l-1-1v-1h-2l2,2v1l-2,1h-1v-1c1-2,0-2-2-3v1h-1v-1c3-3,1-3-2-6v-1c2,0,2-1,3-2l-2,1h-1l-2-2v-2c3,0,3-1,4-2h-2v-1c6,0,5-2,5-3l2-1c-2,0-2,1-4,3h-3v-2h1l2,1c0-4-1-4-2-5v-1h-3v-1h2c0-2-1-1-4-1l-2-1l-1-1v-2h2v1l-1,1h4l-2-1v-2h3v3l1-2h1l2,1l1,1v1c5,0,5-1,4-1l-1-1v-2zm-7,20h1v-1h-1zm4,6v-1l1-1h-2l-1-1v3zm9-8v2h1v-2z"/><path d="M168,185h1v1l-1,3h-1v-3zm-41,1h3v1c-1,1,0,1,1,2v1l-1,1h-2l-1-1zm4,1h2l2,2v2c-2,0-2,1-3,2h-2v-1c2,0,2-1,3-2h1l-1-1v-1h-2zm-85,1h4v1l-2,1h-1l-1-1zm31,1h4l5,1l1,1v2h-1c0-2-3-2-2-1v3l-1,3h-1v-3h-2v-1c1-4-1-3-2-3l1,2v2h-1l-1-2zm89,2h1v3h-1zm-114,2h2v1h-2zm64,0h7v3h-2v-1l1-1l-2,1c-3,0-2,1-2,3l-1,1h1v2h2v2h-2l-1-2v-2l-2,2h-1v13l-1,3h-1l1,1v10h-2l2,1v1l-1,1c-2,0-1,2-1,4h-1l-1-1l-1-2v-1v6l-1,1h-1l-1-3v-1h-8v-9l-1,3h-1l1,1v5l-1,1h-1l-5-1v-4l2-2l1-1h1l2,1v-3l1-1h1v-4l-1,1h-1c-1-1-1,0-2,1h-1v-1l1-1h-1l-2-1l-2-2l-1-2v1h-1l-1-3l-1-7v-1h1v1l1-2h1l-1-2v-1c1-1,0-1-1-3v-3h1v2h2l1,1v1h2v2h2v2l1-2l3-1h2l1,15v-4l1-2l1-1c2,0,2-2,3-4l2-2h1v-2h2v-3l2-2z"/><path d="M55,194h1v3l-1,1h-1l-2-2v-1h1l2,1zm110,1h2l1,1v2h-3v-1l1-1l-1,1h-1v-1zm-86,1h1l1,1v2l-1,2h-1l-1-1v-2zm-27,2h1l1,1v1h-1l-1-1zm96,0h2v1h-2v2h-2l-1-1v2h-1h6v1h-2l2,1v1l-1,1h-2l3,1v1l-1,1h-1v2h-2v-1l1-2h-2v-1l1-1h-2v2h-3l2,1l2,2v2h2v1l-2,1h-3l-4-1l4,1v2l-1,1h-1l-4-1l3,1l1,1v1h-3c-3-1-3,0-5,1h2v1h-2l-1-1v-1c-3,0-1,2-1,5h-2l-2-1l1,1v1h-1l-1-1v-1l1-1c-2,0-1,3-1,4h-1l-1-1c-1-2-1-1-2,3h-1l-1-14v-1l1-1c2,0,2-1,3-2h1v-2l2-2h1l-1-2v-1h5l1,1v1h3l-1-1v-1h2l1,1v2h2v-3h-2v-2c2,0,2-1,3-2h1v1c-1,2,0,2,1,3v-1l1-2l2-2h1c1,1,1,0,2-1zm-12,9v-1h-1v1zm-8,1h3v1l-1,2l2-2h2l-1-1v-1l-3,1zm-4,13h1l2,2v-2zm17-8v-1h2l-1-1v-1h-3l-2-1l2,2v1l-2,2l1-1zm6-8h1v-1h-1zm-23,11h1l1,1l-2-2zm2,3h1l1,1v-2h-1l-1-1zm13-11h1v-1h-1zm-15,6h1l1,1l-2-2zm3,2h1v-3h-1zm2-1l2,2zm5-1h-1l1,1v1h2l-2-1z"/><path d="M55,199h1v2h-1zm102,0h1v2l-1,1h-1l-1-1v-1zm-6,1h2v1h-2zm1,2h3l2,2v1l-2,1h-2v-1h2h-4v-2zm-105,2h1v4h-1zm3,1h1v3h-1zm68,1h1v2h4v1l-1,1c-2,0-2,1-3,2h-1zm-80,9h1v3h-1zm15,0h1v2h-2v-1zm4,4h1l4,4v1h-1l-4-4zm-19,2h1v3h-1zm145,0h1v6l-1,1h-1v-1l1-2h-2v-1h2zm-96,3h2l1,3v1l-2,2h-1v-5v3h-1v-3zm-26,1h1v1l-3,3h-1v-1z"/><path d="M119,230h1v2h-1zm-55,7h2l1,2v2h-1l-1-1v2h-4v-1h2v-2c2,0,1-1,1-2zm-17,1h2v1h-2zm8,0h1v1l-1,2h-1v-2zm61,0h1v1l-1,1h-1v-1zm-71,1h1v2h-1zm13,0h1v6h2v1h-2l-2-1v-5zm62,0h3v1h-2v2h-1zm-72,2h1v3h-1zm24,0h3v3l-1,2h-1q-1-4,0,0v1h-4v-1l1-1h1v-3zm9,0h1l1,2v1h-1l-1-1zm-37,1h1v1l-1,1h-1v-1zm23,0h1v2h-1zm9,0h2v2l-1,1h-1zm-30,1h1l1,2v1h-1l-1-1zm38,1h2v4h-2l-1-2v-1z"/><path d="M49,245h2v1h-2zm60,0h2v1l-2,1h-1v-1zm-13,1h2v1h-2zm-4,1h3v1h-3zm8,0h5v1h-5zm39,3h2l2,2v1h-1l-1-1v-1h-2zm-130,1h1l1,1v1h-1l-1-1zm127,10h3v2l-1,2h-1l-1-2zm5,1h1v1l-1,3h-1l-1-1v-1zm-131,2h2v1h-2zm-2,1h1c0,2,1,2,2,3v1l-1,2l-2,1h-2v-1l1-2h2l-2-1v-1zm15,5h2v1h-2zm-16,3h2v2h-1l-1-1zm157,4h1v1l1-1h1v1l-1,1h-1l-1-1zm-157,1h1v2h-1zm155,2h1v2l-1,1h-2v-1h2zm12,0h1v2l-1,1h-1v-1zm-17,3h2v2h-1l-1-1zm-64,1h1v2h-1zm75,1h2v1h-2z"/></g><g style="fill:rgb(9,95,212);fill-rule:evenodd;stroke:rgb(9,95,212);stroke-width:0.1" id="l7"><path d="M41,183h1v3l-2,2h-1v2l-1,2c-1,0-1,3-2,10h-1v23h1c0,7,1,7,2,11c0,4,1,4,2,7c0,3,1,3,3,7c0,3,1,3,2,4l1,3v1h5l5,1l8,2v1l-1,1h-5l-4-1l2,1v1l-2,2l-3,1h-3l-6-1l-2-2v-1h-2l-2-1l-1-1v-1l1-1h-4l-5-1v-1h-8l-4-2l-1-1v-1h-2l-1-1v-1h-2l-3-3v-3l1-1h1v-2l3-3h1v-2l3-3h1v-2l1-1h1v-2l1-2l4-4h1v-2l1-1l2-1h1v-5l1-4h1l-1-1v-1l1-5l1-4l2-6l1-2l1-1h1v-2l1-1h1v-2c2,0,2-1,3-2z"/><path d="M45,191h1v2l-1,10l-1,2l-3,1h-1v-2l1-1h1v-6l1-1h1v-3zm4,7h2c0,2,1,2,2,3c0,3,1,3,2,5c0,3,1,3,3,7v3h-1l-3-3l-2-4c0-3-1-3-2-4v-2h-2v-2zm115,1h3l3,1l2,1l1,1c0,2,1,2,2,3v1l-4,1h-1c-2-1-2,0-3,1h1l3,3v1h2l5,5l2,4v1h-1l-3-3l-1-2v-1h-2l-2-2v-1h-2l-1-1v-1h-2l-1-1c0-3-1-3-2-4v-5zm-122,7h2l1,1c0,8,1,8,3,12v1h-1l-5-5v-2h-2v-3z"/><path d="M49,211h2l2,1v2h-1l-2-1l-1-1zm0,4h2l1,1v1l-3,1h-1v-2zm117,2h2l1,1l3,6l1,3c0,4,1,4,4,10v2h2l1,1l1,2v2h2l1,1v5h1c0,3,1,3,2,5v7h-2v2l-1,1h-1v2l-1,2c-2,0-2,1-3,2h-1v2l-2,2l-2,1h-2l-2-2l-1-3l-1-4l-1-5c0-5-1-5-2-8v-3h1l2,1l2,2v1h4l1,2c0,3,1,3,3,4l1,1v1h2v1h2v-3l1-1h1v-2h-3c0-3-1-3-3-7c0-3-1-3-3-5l-2-4l-3-9v-4h-1c0-2-1-2-2-3l-1-2l-1-4z"/><path d="M39,218h2l1,1l1,3v2h-2c0-3-1-3-2-5zm123,2h1c0,10,1,10,3,14v2h2l1,2l1,4v3h-1l-1-1l-1-5v-2c-2,0-1,2-1,10h-2l-1-6v-3c1-3,0-3-2-7l-1-4v-5zm2,20h1v-1h-1zm-124-15h3v2l-1,1h1l2,1v1h-2l2,2v1l-1,4h-2l-2-2zm7,8h2l1,1v2h-1l-2-1zm-4,12h1l1,1v1h-1l-1-1zm14,1h2l1,1c0,1,2,1,5,2v1h5v2h-1l-7-1l-4-2l-1-1z"/></g><g style="fill:rgb(166,108,108);fill-rule:evenodd;stroke:rgb(166,108,108);stroke-width:0.1" id="l8"><path d="M99,71h1l1,1v1h-1l-1-1zm10,5h1l1,1v1h-1l-1-1zm4,2h1l1,1v1h-1l-1-1zm-66,43h1v3h-1l-2-1v-1zm-3,3h1l1,1v1h-1l-1-1zm129,4h2v1l-2,1h-1v-1zm-133,24h1v2l-1,1h-1v-1zm-1,4h1l1,1v1h-1l-1-1zm1,17h1v2h-1zm0,6h1l1,1v1l-2,2h-1v-1l1-1h1l-1-1zm39,11h2v4l-1,1h2v4h-1c0-2-1-2-2-3l-1-3v-1zm4,1h1l2,1v3h-1l-1-1l-1-2zm-28,2h2v1h-2zm65,1h2v1l-1,5l-1,1c-2,0-1,2-1,5c-1,6,0,6,1,9v15l-1,5l-1,1h-1v2l-1,1h-1v5l-2,1c-4,0-4,1-5,2h-9l-1-2v-1h-2v3l-4,1h-3v-2h-2l-1-1v-1l-2,1h-1l-1-2c0-2-1-2-2-3l-2-4l-1-3l-1-4v-15h1v1l1-2l1-1h1v-10l1-1h1v5v-1l1-2h1l-1-7v-1h1l1,1c0,5,1,5,2,6v2l-1,2h-1l1,7v3l1-1h1c0,2,1,2,2,3v1h2l1,1v1l-1,1l2-2h3v4c-1,1,0,1,1,3v5l-1,2h8l1,1q1,3,1-4h1l1,1c0,2,1,2,2,3l-1-2v-2l2-1h1l-2-1v-1c2,0,1-1,1-11l1-3h1l-1-3v-6l1-4l1-1h2l1,1v-5zm-36,11v1h1v-1zm11,20v3h1v-3zm-2,2l-3,3h-1l1,2v1l-1,1h5l1,1v-1l1-5h-1l-2-1zm-3,1l-1-1v-3l-2,1h-1v3l1-3h1v3l-1,2l2-2z"/><path d="M57,195h2l2,1v1h-2l-2-1zm3,5h2v1h-2zm-4,2h2v2h-2zm23,5h1v1l-1,2h-1v-2zm65,2h2v1h-2zm-90,7h3v3h-1l-2-2zm8,0h1l1,1v1h-1l-1-1zm-10,9h1l2,2v1h-1l-2-2zm-14,2h1v3h-1zm18,1h2v1h-2zm-13,10h2v1l-1,2l-2,1h-1v-1l1-2zm10,0h2l1,1v2h-1v-2h-2zm7,1h2v2h-1l-1-1zm-13,1h2v1l-2,2h-1v-1zm4,0h1v4h-1zm17,0h3l2,2v4h-1l-1-4q0-1-1,4h-2zm-2,1h1v5h-1zm-2,1h1v2h-1zm11,0h1l1,3v2h-2z"/><path d="M44,243h1l1,1v1h-1l-1-1zm12,0h2v1l-1,1h-1zm-49,8h2l1,1v1h-2l-1-1zm131,8h1l1,1v1h-1l-1-1zm24,18h1l1,1v1h-2z"/></g><g style="fill:rgb(149,164,176);fill-rule:evenodd;stroke:rgb(149,164,176);stroke-width:0.1" id="l9"><path d="M48,61h1v2l-1,1h-1v-2zm57,27h1c0,2,1,1,2,1v4l-1,4l-1,3h-1l-1-3v-1c2,0,1-1,1-8zm2,10h1v3h-1zm-1,9h1v7c-2,0-1,1-1,5l-1,3h-1l1,3v2l-1,2h2v1l-1,2l1-1h1v3h2v2h2c0,2,2,2,5,3l1,1v1h2l1,1v1l-1,1h2l2,2c0,5,1,5,2,6l1,2c0,3,1,3,2,4c0,3,1,3,2,5l1,3v2h-4l-2-2v-1l1-2h-1v-2h-2v-1l2-1h-1l-1-1l-1-2v-3l1-1c-3,0-3,1-4,2h-1l-4-2l-1-2v-3h1l3,1c1,1,1,0,2-1l3-1h-2l-3-3v-1h-2v-1l-2,1h-3l-1-1v-1h-2v3h-3c0-2-1-1-3-1l-1-2v-1h-2v-2l1-1h-1l-4-1l1,1v1h2v1l-2,2h-2v3l-4,2c-2,0-1,1-1,2l2-1h2v3c-6,0-6,3-7,4h-2v3l-1,1h-1l1,1v2c-2,0-1,1-1,2h-2v4l-1,2c-2,0-2,1-4,3h-1l-1-1v2c-2,0-2,3-1,3l1,2v2l-1,1h-1v-1c1-2,0-2-1-3v-1h-2l-1-1v-2c2,0,2-1,3-2h-1l-3-1v2h-1l-1-1v-1l1-1h1v-3h2l1,1v-2l1-1h-2v-2h1l2,1l1,1v-1h2v-2c2,0,1-1,1-2l1-1h-2v-1l1-4l1-2h1l-1-1v-4l2-2l2-1h3h-1v-1c3,0,3-2,6-8l1-1l4-1h2v-2h5l-5-1v-1c3,0,3-1,4-2h2l-3-1v-3h1v1v-4h1c1,1,1,0,2-1h1v-2l1-1h1v-3h1q1,2,1-4zm-15,27v1h1l1,1v-1l2-2l-2,1zm0,2v1h1v-1zm-13,10v1l-1,1h2v-2l1-1l-1,1zm-8,18h-1v1h1zm-3,9v1h2v-1zm6-4h2v-1h-2zm3-12v-1h-1v1zm12-16h2l2,1l-1-1v-1h-3zm5-2v-1h-3v1zm1-2v-1h-1v1zm31,20h-1v1h1zm-29-24l2,1v1h4l-1-2v-1h-2l1,1v1h-1l-1-1v-1l-1,1zm-21,32h1v1h2v-1zm0-2h2v-1h-2z"/><path d="M73,114h1v1l-1,1h-1v-1zm-3,1h1v2h-1zm69,6h2v2h-2zm-48,35h7v1c-4,0-4,1-7,4c-2,0-2,1-3,2h-1l-1-2v-1l3-3zm-52,1h1l1,1v2h-1l-1-2zm87,12h5l2,1l1,1v1c-2,0-1,1-1,2h-1l-1-1v2h2v2h-2l-2-1l-1-1v-1l1-1h-2l-1-3zm-86,2h1l1,1v1h-2zm36,0h1v2h-2v-1zm-35,10h2v1c-2,0-2,1-3,2h-1v-1zm43,13h1v2l-1,7l-1,2l-1,1h-1v3l-1,3l-1,1h-1v2h-1v-3l3-6h1v-4h1l-1-1v-2l1-1h1v-2z"/><path d="M42,205h1v1l-1,1h-1v-1zm130,3h1v2c-1,1,0,1,1,2v1h-1l-2-2v-1zm3,5h1l1,1v2h-1l-1-2zm-149,5h1v1l-1,1h-1v-1zm-11,14h1v1l-1,1h-1v-1zm-3,3h1v2l-3,3h-1v-1l1-1h1v-2zm-7,13h1l1,1v1h-1l-1-1zm160,22h1v1l-1,2h-2v-1zm-2,4h1v4h-1zm-2,3h1v2h2v2h-3l-1-1v-1z"/></g><g style="fill:rgb(66,59,57);fill-rule:evenodd;stroke:rgb(66,59,57);stroke-width:0.1" id="l10"><path d="M65,5h5l1,1v1h-1l-5-1zm7,3h1l4,4v1h-2c0-2-1-2-3-4zm109,14h1l2,1l1,1l2,4v7h-1l-1-6v-3h-1v-2h-2l-1-1zm-3,1h2v1h-2zm-122,1h1v2l-1,2h-1v-2zm27,4h1l1,2v1h-1l-1-1zm-30,4h1v3l-1,1h-1v-2zm32,0h1l1,1l2,4v3h-1l-1-2c0-3-1-3-2-4zm-34,5h2v1l-1,3h-2v-1zm136,5h1l1,2v24h-1l-1-23z"/><path d="M50,44h1v4h-1zm-1,7h1v3h-1zm95,9h1v1l-1,1h-1v-1zm-97,7h1v3h-1zm137,31h1v1l-1,3l-4,4h-1v-1l3-3h1v-3zm-14,37h1v4l-2,2h-1v-1l1-2h1zm-103,50h1l2,4v2l-1,1h-1v-1c1-1,0-1-1-4zm19,4h1l2,1v1l1-1h12v1c-2,0-1,5-1,12l2-4l1-1h1v-2h1l-1-3v-1l8-1h1l2,1v2l-2,1c-2,0-2,1-3,2h-1v3h-2v2l-2,2h-1v2l-1,2l-2,1c-1,0-1,2-2,6h-1v-15l-2,1h-3v2h-1v-2h-2v-2h-2l-1-1v-1h-2z"/><path d="M59,190h1l5,1l2,1v1l-2,1h1l2,1l1,1v3l1-3h1l-1-1v-3h1l2,1v2l1-3h3l1,1l1,2v3c-1,2,0,2,1,3v2l-1,1h-1l-2-1c0-2-1-1-2-1c0-3-4-3-4-1l-2,1h-1l-2-2v-2h-2v-1h2l-2-2c0-2-1-2-3-3l-1-1zm13,8v-2h-1v2zm-6,0v-1h-1v1zm62-6h2v1l-2,1h-1h3v1l-5,5l3-1c2,0,2-1,3-4h1c0,2,1,1,2,1v1l-1,6h-1l-2-2v-1c-2,0-1,1-1,2l-1,1h-5h3v3h-1c-3-1-3,1-5,2h-1v-2l1-3c3,0,1-1,1-3h2v-2h1v-4z"/><path d="M134,193h2v3h-1l-1-1zm-71,9h2l2,1l1,1v1h4l2,2l1,2v8h-3v-1l2-2h-4c0-3-1-3-5-5v-1l2-1h-3v-1l3-1h-3l-1-2zm78,3h2v1h-2zm-66,2h1l1,1v1h-1l-1-1zm55,0h3l1,1v1h-3l-1-1zm-54,3h2v1h-2zm53,2h4v1h-2v2h-1l-1-2zm-7,4h1v2h-1zm-1,3h1v3h-1zm-72,4h1l3,3v1h-1l-3-3zm26,18h2v1h-2zm30,6h2v1h-2z"/></g><g style="fill:rgb(4,19,60);fill-rule:evenodd;stroke:rgb(4,19,60);stroke-width:0.1" id="l11"><path d="M42,190h2v1l-1,1h-1zm118,16h1l1,1c0,3,1,3,2,4v1l1-1h1v1l-1,1l1-1h2v1l-2,1h-1l-2-1c0-2-1-1-2-1v-1c1-1,0-1-1-4zm-109,2h1v1l-1,1h-1v-1zm-5,2h2v1l-1,1h-1zm-9,3h1v2h-1zm121,2h1v2h-1zm11,1h1l4,2l3,3l1,2v2h-1l-1-1c0-2-1-2-4-5v-1h-2l-1-1zm-133,3h1v5h-1zm122,3h1v3c-3,0-3,2-4,4l-1,1h-1v-1l1-2h1l-1-2v-2h1l3,1zm-95,2h1l2,2v1h-1l-2-2zm116,1h1l1,1l1,2v1h-2l-1-2zm-126,2h1l2,1l1,1v1h-1l-2-1l-1-1zm14,1h4l2,1l1,1v1h2v3h-1l-2-1l-1-1v-1h-2l-1-1v-1h-2z"/><path d="M158,228h2v1h-2zm-3,4h1v1l-1,1h-1v-1zm5,0h1v2h-1zm-34,2h2v1h-2zm-4,4h7v1l-5,1h-1l-1-1zm39,0h1v2h-1zm-100,4h1v3h-1zm-18,6h1c0,2,1,2,2,3c0,2,1,2,2,3v2h2l1,1v1h-3l-2-2l-3-6zm8,2h2l2,1l1,1v1h-1l-4-2zm8,2h1l5,1v1h6v1h29l2,1v1h5l2,1v1l-3,1h-2c-1-1-1,0-3,1l-3,1c-3,0-3,1-4,2l-2,1h1v1h-9l-3-1v-1h-6l-6-2v-1h-5l-8-2l-1-1v-4h1l2,4v-1c2-2,1-2-1-3v-1z"/><path d="M94,269h4v1h-4zm-3,1h2v1h-2zm-33,1h5v1h-5zm24,0h2v1h-2z"/></g><g style="fill:rgb(29,32,38);fill-rule:evenodd;stroke:rgb(29,32,38);stroke-width:0.1" id="l12"><path d="M66,6h2v1l-1,1h-1zm14,17h1l1,1v1h-1l-1-1zm94,3h1v1l-1,1h-1v-1zm1,26h1v1l-1,1h-1v2l-4,2h-1v-1l1-1h2v-2l1-1zm-6,2h2v1h-2zm-4,3h1l2,1v1h-2l-1-1zm-90,11h1l1,1v1h-1l-1-1zm109,9h1v2h-1zm-9,3h1v1l-1,1h-1v-1zm0,12h1v2l-2,1h-1v-1zm4,7h3l1,1v1l-1,1h-2l-1-1zm-31,25h1v2h-1zm16,18h1l1,1v2l1-2h1l1,2c0,4,1,4,2,5v1l-1,1h-2v2l-1,1h-1l-1-1v-4c1-5,0-5-1-6zm-107,26h2v1h-2zm85,15h2l3,3l2,4v1h-2v2l-2,2l1-1h2l1,2v1c-2,0-2,1-3,2l-3,1h-2c-1-1-1,0-2,1h-3v2h-3c0-6-1-6-2-8v3l-1,1l-2,1h-3v-1l3-3h1l-2-1v-1l1-1h1l1,2v-1l1-1c2,0,2-1,5-4h1l1,2v-3h1v1l1-1h1v-3zm-6,8v2h-2l1,2v1l1-3l1-2zm-2,5h-1v1h1z"/><path d="M100,187h2v1l-1,1h-1zm-53,7h1v2l-1,1h-1v-1zm3,14h1l1,1v1h-1l-1-1zm-4,1h2v1h-2zm-9,6h1v5h-1zm120,1h1v2h-1zm-87,6h1l2,1v1h-2l-1-1zm83,0h2v1l-2,1h-1v-1zm4,8h1v1l-1,1h-1v-1zm3,4h1v2h-1zm-95,2h1l1,1v2h-1l-1-2zm9,4h1v1l-1,1h-1v-1zm3,1h1l1,1v2l-1,1h-1zm30,6h1v1l-1,1h-6v-1zm37,0h1l2,1v2h-1l-2-1zm19,3h1v2h-1zm1,5h1v2h-1zm-101,3h6v1h-6zm8,0h3v2h-2l-1-1zm5,4h2v1h-2zm71,1h1v3l-1,1h-1v-1zm-78,9h11v1h-11z"/><path d="M140,274h2v1h-2zm-100,7h1l1,1v1h2v1h-2l-2-1z"/></g><g style="fill:rgb(5,33,89);fill-rule:evenodd;stroke:rgb(5,33,89);stroke-width:0.1" id="l13"><path d="M41,197h1v2l-1,2l-1,1h-1v2h-1v-3l2-2h1zm22,37h1l3,1l2,1v1h4v1l1-1h2c0,2,2,1,3,1l1,2v3h1c0,2,1,2,2,3c0,2,1,2,2,3v1l-4,1h-4l-2-1v-1l2-2h1l-1-1v-1l1-1h1c0-2-1-2-4-3v-1l-1,1h-1l-2-1v-1l-3,1h-1l-1-3v-1l-2,2h-1zm53,5h2l2,2c0,2,3,1,4,1c1,1,1,0,3-1l3-1h3v1l-1,1c-3,0-3,1-7,3l-6,2l-4,1h-5h2v1l-10,2h-13v-2c5,0,5-1,6-2h2l4,1v1c6,0,6-1,7-2c2,0,2-1,3-2l4-1h1l-1-3v-1z"/></g><g style="fill:rgb(201,194,62);fill-rule:evenodd;stroke:rgb(201,194,62);stroke-width:0.1" id="l14"><path d="M59,198h2v1h-2zm-11,6h2v4h-2zm6,11h2v2c-1,1,0,1,5,6l1,1v1l-3,3h-4l-2-2v-1h-2l-1-1l-1-2v-4l1-1l5-1h-1zm7,1h1l2,2v1h-3l-1-1v-1zm-22,5h1v8h-1l-1-2v-3zm3,17h1v1l-1,2h2v-2h1v2l1-2h4l1,1v5h-2v2h-1l-1-2v-3l-1,2h-1v-2l-2,2h-1l-1-3v-2zm7,6v-4h-2zm3-5h2v2h2v-2h1v3c-3,0-2,2-2,3h-3zm7,0h1l1,1v5h-2z"/><path d="M62,239h1v2h-1zm3,1h1v6h-2v-2zm56,0h2v2h-2zm-53,2h1v2h-1z"/></g><g style="fill:rgb(12,11,11);fill-rule:evenodd;stroke:rgb(12,11,11);stroke-width:0.1" id="l15"><path d="M134,154h2c0,2,1,2,2,3v1l1-1h1v4l-6,1h-1v-1c1-1,0-1-1-5v-1h3h-1zm-74,18h2l1,2v3l-4,4h-2l-2-1v-2h1l2,1l1,1l-1-2v-4zm8,11h1l1,2c0,2,1,2,4,5v5h-1c0-2-2-2-4-3v-1c1-2,0-2-1-4zm92,3h1v2l-1,1l-3,1h-2v2h3v3l-1,1h-6v-1h4c0-2-2-1-3-1v-4h1c1,1,1,0,2-1h1l-1-1v-1h2c2,1,2,0,3-1zm-31,84h1l1,1l1,2v1l-1,1h-1l-1-3z"/></g><g style="fill:rgb(89,135,191);fill-rule:evenodd;stroke:rgb(89,135,191);stroke-width:0.1" id="l16"><path d="M75,113h3v1l-1,1h-2zm30,1h1v1l-1,1h-1v-1zm36,7h1v2h-1zm-100,61h1l1,1v1h-1c-1-1-1,0-2,1h-2v2l-1,1h-1v2l-1,1h-1v-1l1-3l2-2h1v-2h1c1,1,1,0,2-1zm-9,9h1l1,1v1h-1l-1-1zm12,0h1v2l-1,3l-1,1h-1v-1l1-3zm-12,3h1v2l-1,3h-1v4h-1v-5l1-3zm135,5h3l2,1l3,3v2h-1l-1-1l-1-2c0-1-2-1-5-2zm-126,2h1v2h-1zm-12,4h1v3h-1zm12,0h1v3l-1,2h-1v-4zm-12,4h1v1l-1,4h-1v-4zm142,0h1v1h-1l1,1v1h-1l-1-1v-1zm3,4h1l1,1v1h-1l-1-1z"/><path d="M27,215h1v4l-1,1h-1v-1zm150,0h1l2,4v1h-1l-1-1l-1-2zm-159,13h1v1l-1,2l-1,1h-1v-1l1-2zm21,2h1v4h-1zm-24,3h1v1l-2,2h-1v-2zm-4,5h1v1l-3,3h-1v-1zm-4,5h1v1l-1,1h-1c0,3,1,3,2,4v1h-1l-2-2v-3zm177,5h1l1,1l1,3v3h-1l-1-2l-1-3zm-172,5h2l1,1v1h-2l-1-1zm174,3h2v3h-1l-1-2z"/></g><g style="fill:rgb(30,26,25);fill-rule:evenodd;stroke:rgb(30,26,25);stroke-width:0.1" id="l17"><path d="M95,65h1v2h-1zm67,5h1v1l-1,2h-1v-2zm-93,12h1v2h-1zm-3,1h1v2h-1zm14,36h1l1,1v1h-1l-1-1zm57,4h2v1l-1,1h-1v3h-2v-1l1-3zm4,2h1v3h-2v-2zm-94,21h2v1h-2zm4,2h1v1l-2,2h-2v-1l1-1zm118,6h2v1l-1,1h-2v-1zm-8,4h1l1,1v2h-1l-1-2zm-6,1h1v2h-1zm7,3h1l1,1v1h-2zm-98,15h1l2,2l1,2v1h-1l-2-1v-1l1-1h-2zm-2,4h2v1l-2,1h-1v-1zm-2,3h3v1l-1,1h-1l-1-1zm93,0h1v2l-1,1h-1v-1zm-69,1h1v2h-2v-1zm66,2h1v2h-1zm-27,9h1v2l-1,2h-1v-2zm0,5h1l2,1v1l-1,1h-2v-1l1-1l-1,1h-2v-1z"/><path d="M70,219h3v1h-3zm4,6h2v1h-2zm55,5h1l1,1v2l-1,1h-1zm-42,17h2v1h-2zm35,29h1v3l-1,1h-1v-2zm3,2h1v2h-1zm-29,3h1v3h-1zm33,0h1v2h-1zm2,0h2v1h-2zm-40,1h2v2h-2zm54,0h1l1,1v1h-1l-1-1z"/></g><g style="fill:rgb(128,143,147);fill-rule:evenodd;stroke:rgb(128,143,147);stroke-width:0.1" id="l18"><path d="M172,26h1v1l-1,1h-1v-1zm-66,49h1l1,1v1h-1l-1-1zm10,4h7v1l-2,1h-4l-1-1zm-3,4h1v1l1-1h1v1l-1,1h-1l-1-1zm-2,4h1v2h-1zm-63,12h1v2h-1zm48,44h1v3l-1,2h-1l-2-1v-2c2,0,2-1,3-2zm6,12h4v2h-2l-2-1zm-34,3h1v2h-2v-1zm48,3h1l1,1v1h-1l-1-1zm-76,14h1l1,1v1h-1l-1-1zm94,1h2v1h-2zm-6,3h2v1h-2zm-74,35h2l1,1v1h-1l-2-1zm-16,4h1l1,1v2h-2zm1,11h1v1l-1,2h-1v-2zm1,8h1l1,1v1l-1,1h-1zm3,7h2v1h-2zm10,1h4v1h-4zm17,1h2v1h-2zm68,10h2l1,2v1l-1,1h-1l-2-1v-2zm0,2h1v-1h-1z"/></g><g style="fill:rgb(46,40,38);fill-rule:evenodd;stroke:rgb(46,40,38);stroke-width:0.1" id="l19"><path d="M183,82h1v4h-1zm0,12h1v2h-1zm-38,82h2l1,1v1h-1l-2-1zm-76,7h1l1,1v1h-2zm1,3h1l1,1v1h-1l-1-1zm4,1h1l2,2v1h-4v-2zm43,3h5l2,2v1h-1l-2-1v-1h-3l1,1v1h-2zm8,0h1l1,1v1h-1l-1-1zm55,31h1l1,1v1h-1l-1-1zm-15,62h2l1,1v1h-1l-2-1l1,1v1h-1l-1-1v-1z"/></g><g style="fill:rgb(11,11,20);fill-rule:evenodd;stroke:rgb(11,11,20);stroke-width:0.1" id="l20"><path d="M64,115h1v1l-2,2h-1v-1zm94,93h2v1h-2zm-142,68h1l3,1v1l-1,1h2v5h-1l-3-3l-1-4zm93,6h1v2h-1z"/></g><g style="fill:rgb(20,18,18);fill-rule:evenodd;stroke:rgb(20,18,18);stroke-width:0.1" id="l21"><path d="M83,123h1v2l-1,1h-1v-2zm-27,59h1l1,1v1h-1l-1-1zm38,96h1v2h-1z"/></g><g style="fill:rgb(154,68,73);fill-rule:evenodd;stroke:rgb(154,68,73);stroke-width:0.1" id="l22"><path d="M96,244h2l1,1v2h-1l-2-1z"/></g><g style="fill:rgb(20,28,27);fill-rule:evenodd;stroke:rgb(20,28,27);stroke-width:0.1" id="l23"><path d="M168,157h2v1l-2,1h-1v-1zm1,6h2v1h-2z"/></g><g style="fill:rgb(18,19,28);fill-rule:evenodd;stroke:rgb(18,19,28);stroke-width:0.1" id="l24"><path d="M14,274h2v1l-2,1h-1v-1z"/></g></svg>